<?xml version="1.0" encoding="utf-8"?>
<!-- Generator: Adobe Illustrator 18.1.0, SVG Export Plug-In . SVG Version: 6.00 Build 0)  -->
<svg version="1.1" id="Layer_1" xmlns="http://www.w3.org/2000/svg" xmlns:xlink="http://www.w3.org/1999/xlink" x="0px" y="0px"
	 width="112px" height="112px" viewBox="-185 95 112 112" enable-background="new -185 95 112 112" xml:space="preserve">
<path fill="#444444" d="M-73.5,116.7c-3.1,4.6-6.9,8.6-11.3,11.8c0,0.3,0,0.8,0.1,1.5c0.1,0.7,0.1,1.2,0.1,1.5
	c0,6.1-0.9,12.2-2.7,18.4c-1.8,6.1-4.6,12-8.2,17.5c-3.7,5.6-8.1,10.5-13.1,14.8s-11.1,7.8-18.2,10.4c-7.1,2.6-14.7,3.9-22.9,3.9
	c-12.7,0-24.3-3.4-34.8-10.2c2.2,0.2,4,0.2,5.4,0.2c10.6,0,20.1-3.2,28.4-9.7c-4.9-0.1-9.4-1.6-13.2-4.5c-3.9-2.9-6.6-6.7-8.2-11.4
	c1.3,0.3,2.8,0.5,4.4,0.5c2.1,0,4.1-0.3,6-0.9c-5.3-1.1-9.6-3.7-13.1-7.9c-3.5-4.2-5.2-8.9-5.2-14.4v-0.2c3,1.6,6.4,2.4,10.2,2.6
	c-3.1-2-5.5-4.7-7.3-8.1c-1.8-3.3-2.7-6.9-2.7-10.8c0-3.9,1-7.8,2.9-11.5c5.7,7.1,12.7,12.8,20.8,16.9c8.1,4.1,16.9,6.4,26.4,6.9
	c-0.6-2-0.8-3.7-0.8-5.2c0-6.3,2.2-11.6,6.7-16.1c4.5-4.4,9.9-6.6,16.4-6.6c3.1,0,6.2,0.6,9.1,1.9c2.9,1.3,5.4,3,7.4,5.3
	c5.2-1,10-2.9,14.5-5.5c-1.6,5.3-5,9.5-10,12.6C-81.8,119.6-77.4,118.4-73.5,116.7L-73.5,116.7z"/>
</svg>
