<?xml version="1.0" encoding="utf-8"?>
<!-- Generator: Adobe Illustrator 18.1.0, SVG Export Plug-In . SVG Version: 6.00 Build 0)  -->
<svg version="1.1" id="Layer_1" xmlns="http://www.w3.org/2000/svg" xmlns:xlink="http://www.w3.org/1999/xlink" x="0px" y="0px"
	 width="112px" height="112px" viewBox="-185 95 112 112" enable-background="new -185 95 112 112" xml:space="preserve">
<path fill="#444444" d="M-129,96.2c7.5,0,14.6,1.5,21.4,4.4c6.8,2.9,12.6,6.8,17.6,11.7s8.8,10.8,11.7,17.6
	c2.9,6.8,4.4,13.9,4.4,21.4c0,9.9-2.5,19.1-7.4,27.6s-11.6,15.1-20.1,20.1c-8.5,4.9-17.7,7.4-27.6,7.4c-5.4,0-10.7-0.7-15.6-2.2
	c2.8-4.5,4.6-8.5,5.6-11.9l3.9-15c1,1.8,2.7,3.4,5.3,4.8c2.6,1.4,5.3,2.1,8.2,2.1c5.7,0,10.9-1.6,15.4-4.9c4.5-3.3,8-7.8,10.5-13.5
	c2.5-5.7,3.7-12.2,3.7-19.3c0-8.5-3.3-15.9-9.8-22.1c-6.5-6.3-14.9-9.4-25-9.4c-6.2,0-11.9,1.1-17.1,3.2c-5.2,2.1-9.3,4.9-12.5,8.2
	s-5.6,7.1-7.2,11c-1.7,4-2.5,8-2.5,12c0,5,0.9,9.3,2.8,13s4.7,6.4,8.4,7.9c0.7,0.3,1.2,0.3,1.7,0.1s0.8-0.7,1-1.4
	c0.7-2.4,1.1-3.9,1.1-4.4c0.4-1,0.1-2.1-0.7-3c-2.5-2.8-3.7-6.4-3.7-10.8c0-7.3,2.5-13.5,7.5-18.7c5-5.2,11.6-7.8,19.7-7.8
	c7.2,0,12.8,2,16.8,5.9c4,3.9,6,9,6,15.3c0,5.3-0.7,10.1-2.2,14.5s-3.5,8-6.2,10.7c-2.7,2.7-5.7,4-9.2,4c-2.9,0-5.2-1.1-7-3.2
	s-2.4-4.6-1.7-7.5c0.4-1.3,0.9-3.1,1.5-5.2c0.6-2.1,1.1-3.9,1.6-5.4c0.4-1.5,0.8-3.1,1.2-4.8c0.4-1.7,0.6-3.1,0.6-4.3
	c0-2.4-0.6-4.3-1.9-5.9c-1.2-1.5-3.1-2.3-5.4-2.3c-3,0-5.4,1.4-7.5,4.1s-3,6.1-3,10.2c0,1.5,0.1,3,0.4,4.4c0.2,1.4,0.5,2.5,0.8,3.2
	l0.4,1c-3.9,17-6.3,27-7.2,29.9c-0.8,3.6-1,7.9-0.9,12.8c-9.8-4.4-17.8-11.1-23.9-20.2c-6.1-9.1-9.1-19.2-9.1-30.2
	c0-15.2,5.4-28.2,16.1-38.9C-157.2,101.5-144.2,96.1-129,96.2L-129,96.2z"/>
</svg>
