<?xml version="1.0" encoding="utf-8"?>
<!-- Generator: Adobe Illustrator 18.1.0, SVG Export Plug-In . SVG Version: 6.00 Build 0)  -->
<svg version="1.1" id="Layer_1" xmlns="http://www.w3.org/2000/svg" xmlns:xlink="http://www.w3.org/1999/xlink" x="0px" y="0px"
	 width="112px" height="112px" viewBox="-185 95 112 112" enable-background="new -185 95 112 112" xml:space="preserve">
<path fill="#444444" d="M-82.8,159.2h-48.7c-2.8,0-5.7-1.8-6.7-4.2l-11.7-33.1c-0.4-1.7-0.1-2.9,0.6-3.9c0.5-0.6,1.4-1.2,3.2-1.2
	l67.3,6.2c0,0,0,0,0,0c1.1,0,2.5,0.2,3.5,1.4l0.1,0.2c0.9,1.2,1.2,2.2,0.9,3.6l-2.8,26.4C-77.4,157.3-79.9,159.2-82.8,159.2z
	 M-146,117.8c-1.4,0-2.1,0.5-2.4,0.9c-0.6,0.7-0.7,1.7-0.4,3l11.7,33c0.8,2,3.3,3.6,5.7,3.6h48.7c2.4,0,4.5-1.6,5-3.8l2.8-26.4
	c0.2-1.1,0-1.9-0.8-2.9l-0.1-0.1c-0.7-0.8-1.8-0.9-2.7-0.9L-146,117.8z"/>
<path fill="#444444" d="M-96.3,195.7c-5.1,0-9.2-4.1-9.2-9.2s4.1-9.2,9.2-9.2s9.2,4.1,9.2,9.2S-91.2,195.7-96.3,195.7z M-96.3,178.4
	c-4.5,0-8.2,3.7-8.2,8.2s3.7,8.2,8.2,8.2s8.2-3.7,8.2-8.2S-91.8,178.4-96.3,178.4z M-133.5,195.7c-5.1,0-9.2-4.1-9.2-9.2
	s4.1-9.2,9.2-9.2c5.1,0,9.2,4.1,9.2,9.2S-128.5,195.7-133.5,195.7z M-133.5,178.4c-4.5,0-8.2,3.7-8.2,8.2s3.7,8.2,8.2,8.2
	c4.5,0,8.2-3.7,8.2-8.2S-129,178.4-133.5,178.4z M-86.1,173.7h-56.9c-3.7,0-5.1-0.8-5.9-3.4l-17.3-54.6h-13.6c-2.7,0-4.8-2-4.8-4.6
	c0-2.6,2.1-4.6,4.8-4.6h17.4c2.7,0,3.7,1.3,4.5,3.6l2.1,6.1l15.4,48.2l54.4,0c2.7,0,4.8,2,4.8,4.6
	C-81.3,171.7-83.4,173.7-86.1,173.7z M-179.9,107.5c-2.2,0-3.8,1.6-3.8,3.6s1.7,3.6,3.8,3.6h14.4L-148,170c0.6,1.9,1.3,2.7,5,2.7
	h56.9c2.2,0,3.8-1.6,3.8-3.6c0-2-1.6-3.5-3.6-3.6l-0.2,0h-55.1l-15.6-48.9l-2.1-6.1c-0.8-2.3-1.6-2.9-3.6-2.9H-179.9z"/>
</svg>
