<?xml version="1.0" encoding="utf-8"?>
<!-- Generator: Adobe Illustrator 18.1.0, SVG Export Plug-In . SVG Version: 6.00 Build 0)  -->
<svg version="1.1" id="Layer_1" xmlns="http://www.w3.org/2000/svg" xmlns:xlink="http://www.w3.org/1999/xlink" x="0px" y="0px"
	 width="112px" height="112px" viewBox="0 188 112 112" enable-background="new 0 188 112 112" xml:space="preserve">
<path d="M56,198.2c14.9,0,16.7,0.1,22.6,0.3c5.5,0.2,8.4,1.2,10.4,1.9c2.6,1,4.5,2.2,6.4,4.2c2,2,3.2,3.8,4.2,6.4
	c0.8,2,1.7,4.9,1.9,10.4c0.3,5.9,0.3,7.7,0.3,22.6s-0.1,16.7-0.3,22.6c-0.2,5.5-1.2,8.4-1.9,10.4c-1,2.6-2.2,4.5-4.2,6.4
	c-2,2-3.8,3.2-6.4,4.2c-2,0.8-4.9,1.7-10.4,1.9c-5.9,0.3-7.7,0.3-22.6,0.3s-16.7-0.1-22.6-0.3c-5.5-0.2-8.4-1.2-10.4-1.9
	c-2.6-1-4.5-2.2-6.4-4.2c-2-2-3.2-3.8-4.2-6.4c-0.8-2-1.7-4.9-1.9-10.4c-0.3-5.9-0.3-7.7-0.3-22.6c0-14.9,0.1-16.7,0.3-22.6
	c0.2-5.5,1.2-8.4,1.9-10.4c1-2.6,2.2-4.5,4.2-6.4s3.8-3.2,6.4-4.2c2-0.8,4.9-1.7,10.4-1.9C39.3,198.2,41.1,198.2,56,198.2 M56,188.1
	c-15.2,0-17.1,0.1-23.1,0.3c-5.9,0.3-10,1.2-13.6,2.6c-3.7,1.4-6.8,3.4-9.9,6.5c-3.1,3.1-5,6.2-6.5,9.9c-1.4,3.6-2.3,7.6-2.6,13.6
	c-0.3,5.9-0.3,7.9-0.3,23c0,15.2,0.1,17.1,0.3,23.1c0.3,5.9,1.2,10,2.6,13.6c1.4,3.7,3.4,6.8,6.5,9.9c3.1,3.1,6.2,5,9.9,6.5
	c3.6,1.4,7.6,2.3,13.6,2.6s7.9,0.3,23.1,0.3s17.1-0.1,23.1-0.3c5.9-0.3,10-1.2,13.6-2.6c3.7-1.4,6.8-3.4,9.9-6.5
	c3.1-3.1,5-6.2,6.5-9.9c1.4-3.6,2.3-7.6,2.6-13.6c0.3-6,0.3-7.9,0.3-23.1s-0.1-17.1-0.3-23.1c-0.3-5.9-1.2-10-2.6-13.6
	c-1.4-3.7-3.4-6.8-6.5-9.9c-3.1-3.1-6.2-5-9.9-6.5c-3.6-1.4-7.6-2.3-13.6-2.6C73.1,188.2,71.2,188.1,56,188.1L56,188.1z"/>
<path d="M56,215.3c-15.9,0-28.7,12.9-28.7,28.7s12.9,28.7,28.7,28.7s28.7-12.9,28.7-28.7S71.9,215.3,56,215.3z M56,262.7
	c-10.3,0-18.6-8.3-18.6-18.6s8.3-18.6,18.6-18.6s18.6,8.3,18.6,18.6S66.3,262.7,56,262.7z"/>
<circle cx="85.9" cy="214.2" r="6.7"/>
</svg>
