<?xml version="1.0" encoding="utf-8"?>
<!-- Generator: Adobe Illustrator 18.1.0, SVG Export Plug-In . SVG Version: 6.00 Build 0)  -->
<svg version="1.1" id="Layer_1" xmlns="http://www.w3.org/2000/svg" xmlns:xlink="http://www.w3.org/1999/xlink" x="0px" y="0px"
	 width="112px" height="112px" viewBox="-93 95 112 112" enable-background="new -93 95 112 112" xml:space="preserve">
<path fill="#444444" d="M11.7,96.2c1.7,0,3.2,0.6,4.4,1.8c1.2,1.2,1.8,2.6,1.8,4.4v97.5c0,1.7-0.6,3.2-1.8,4.4
	c-1.2,1.2-2.6,1.8-4.4,1.8H-16v-42.3h14.1l2-16.7H-16v-10.7c0-2.6,0.6-4.5,1.7-5.9s3.2-2,6.3-2h8.7v-14.9c-3.8-0.4-8.1-0.6-12.7-0.6
	c-6.4,0-11.5,1.9-15.4,5.6c-3.9,3.8-5.9,9.1-5.9,15.9v12.4h-14.1v16.7h14.1v42.3h-52.4c-1.7,0-3.2-0.6-4.4-1.8s-1.8-2.6-1.8-4.4
	v-97.5c0-1.7,0.6-3.2,1.8-4.4c1.2-1.2,2.6-1.8,4.4-1.8L11.7,96.2L11.7,96.2z"/>
</svg>
