<?xml version="1.0" encoding="utf-8"?>
<!-- Generator: Adobe Illustrator 18.1.0, SVG Export Plug-In . SVG Version: 6.00 Build 0)  -->
<svg version="1.1" id="Layer_2" xmlns="http://www.w3.org/2000/svg" xmlns:xlink="http://www.w3.org/1999/xlink" x="0px" y="0px"
	 width="107.1px" height="112px" viewBox="0 0 107.1 112" enable-background="new 0 0 107.1 112" xml:space="preserve">
<path fill="#FFFFFF" d="M0.8,112l-0.6-0.7l15.8-73.4l0.6-0.5h74l0.6,0.5l15.9,73.4l-0.6,0.7H0.8z M104.3,109.7l-15-70H18.1l-15.2,70
	H104.3z"/>
<path fill="#FFFFFF" d="M28.3,54.6c-2.7,0-4.8-2.2-4.8-4.8c0-2.6,2.2-4.8,4.8-4.8c2.6,0,4.8,2.2,4.8,4.8
	C33.1,52.4,30.9,54.6,28.3,54.6z M28.3,47.2c-1.4,0-2.5,1.1-2.5,2.5c0,1.4,1.1,2.5,2.5,2.5c1.4,0,2.5-1.1,2.5-2.5
	C30.8,48.3,29.7,47.2,28.3,47.2z"/>
<path fill="#FFFFFF" d="M78.9,54.6c-2.7,0-4.8-2.2-4.8-4.8c0-2.6,2.2-4.8,4.8-4.8c2.6,0,4.8,2.2,4.8,4.8
	C83.7,52.4,81.5,54.6,78.9,54.6z M78.9,47.2c-1.4,0-2.5,1.1-2.5,2.5c0,1.4,1.1,2.5,2.5,2.5c1.4,0,2.5-1.1,2.5-2.5
	C81.4,48.3,80.3,47.2,78.9,47.2z"/>
<path fill="#FFFFFF" d="M28.3,51c-0.6,0-1.1-0.5-1.1-1.1c0-0.1,0.5-12.5,3.9-24.7C35.6,8.6,43.4-0.2,53.6-0.2
	c10.2,0,18,8.7,22.5,25.3C79.5,37.3,80,49.6,80,49.7c0,0.7-0.5,1.1-1.1,1.1c-0.7,0-1.1-0.5-1.1-1.1c0-0.5-2-47.7-24-47.7
	C31.8,2,29.4,47.8,29.4,49.7c0.1,0.3,0,0.6-0.2,0.9C29,50.8,28.6,51,28.3,51L28.3,51z"/>
</svg>
