<?xml version="1.0" encoding="utf-8"?>
<!-- Generator: Adobe Illustrator 18.1.0, SVG Export Plug-In . SVG Version: 6.00 Build 0)  -->
<svg version="1.1" xmlns="http://www.w3.org/2000/svg" xmlns:xlink="http://www.w3.org/1999/xlink" x="0px" y="0px" width="374.8px"
	 height="230.2px" viewBox="0 0 374.8 230.2" enable-background="new 0 0 374.8 230.2" xml:space="preserve">
<g id="Layer_1_copy" display="none">
	<g display="inline">
		<path d="M480.7-221.5l14.1,15.5l-0.5,0c0.8-1.4,1.6-2.7,2.5-4c0.9-1.3,1.7-2.6,2.4-4c0.3-0.7,0.6-1.4,0.8-2.1
			c0.2-0.7,0.3-1.5,0.5-2.3l1-4.6c1.3-6.1,2.5-12.3,3.5-18.5c1.1-6.2,2-12.4,2.9-18.6c0.9-6.2,1.5-12.4,0.7-18.4
			c-0.4-3.1-0.8-6.2-1.3-9.3l-1.5-9.3l-3.2-18.5c-1.1-6.2-2.2-12.4-3.2-18.6c-1.1-6.1-2.4-12.3-3.4-18.6c-1-6.2-1.7-12.7-1.4-19
			c0.2-6.4,1.2-12.8,2.7-19c1.6-6.2,3.7-12.2,6.3-18c1.3-2.9,2.7-5.7,4.2-8.6c1.5-2.8,3.1-5.6,4.9-8.2c3.6-5.3,8.2-10.2,13.7-13.6
			c2.8-1.7,5.8-3,8.9-4c3.2-1,6.4-1.6,9.8-1.6c3.3,0,6.8,0.9,9.7,3l1,0.8c0.3,0.3,0.6,0.6,0.9,0.9c0.6,0.7,1.1,1.2,1.6,1.8
			c1.1,1.2,2,2.5,3,3.8c1.9,2.6,3.5,5.4,4.8,8.4c1.3,3,2.3,6.2,2.7,9.5l-0.1-0.4c0.4,1.1,0.6,2,0.9,3c0.3,1,0.5,2,0.7,3
			c0.4,2,0.8,4,1.1,6c0.4,2,0.6,4,0.9,6c0.3,2,0.5,4,0.8,6c0.3,2,0.4,4,0.7,6c0.2,2,0.4,4,0.6,6c0.2,2,0.4,4,0.5,6l0.5,6l0.4,6
			c0.1,2,0.3,4,0.4,6c0.2,4,0.4,8,0.5,12l0.2,6c0.1,2,0.2,4,0.2,6l0.3,12l0-0.2c0.8,4.9,1.7,9.8,2.9,14.6c1.3,4.8,2.8,9.6,4.5,14.3
			c3.4,9.4,7.5,18.7,9.7,28.8l0.8,3.8l0.6,3.8l0.9,7.5l1.8,15l3.7,30l0.5,3.7c0.1,0.6,0.1,1.3,0.2,1.8l0.3,1.9
			c0.2,1.2,0.4,2.5,0.6,3.7c0.2,1.2,0.4,2.4,0.7,3.6c1.1,4.9,2.4,9.7,4,14.4c3.1,9.5,7,18.8,10.8,28.1c1.9,4.6,3.8,9.3,5.7,14
			c1.9,4.6,4,9.2,6,13.8c2,4.6,4,9.3,5.6,14.2c1.6,4.8,2.8,9.9,3.4,15l2.1,15l1,7.5l0.5,3.7l0.1,0.9l0,0.1c0,0,0,0.2,0,0l0,0.2
			L644-61l0.3,1.9c1.7,10,3,20,3.9,30.1c0.9,10.1,1.4,20.2,1.4,30.3l0,0.9l0,0.2c0,0.1,0-0.1,0,0l0,0.1l0,0.5l0.1,1.9l0.3,3.7
			l0.6,7.5c0.4,5,0.8,10.1,1,15.1c0.1,2.5,0.2,5.1,0.2,7.6c0,2.6-0.1,5.1-0.2,7.6c-0.1,2.5-0.1,5-0.1,7.5c0.1,2.5,0.1,5,0.3,7.5
			c0.3,5,0.8,10,1.5,14.9c0.7,5,1.6,9.9,2.6,14.8c1,4.9,2.3,9.8,3.6,14.6c1.3,4.8,2.8,9.6,4.4,14.4l9.2,28.8l-10.1-28.5
			c-1.7-4.7-3.3-9.5-4.8-14.3c-1.5-4.8-2.8-9.7-4-14.6c-1.2-4.9-2.2-9.9-3-14.9c-0.8-5-1.5-10-1.9-15.1c-0.2-2.5-0.3-5.1-0.5-7.6
			c-0.1-2.5-0.2-5.1-0.1-7.6l0-3.8c0-1.2,0-2.5,0-3.7c0-2.5-0.1-5-0.2-7.5c-0.2-5-0.5-10-0.9-15l-0.6-7.5l-0.3-3.8l-0.1-1.9l0-0.5
			l0-0.1l0-0.2l0-0.2l0-0.9c0-10-0.4-20-1.4-30c-0.9-10-2.2-19.9-3.9-29.8l-0.3-1.8l-0.1-0.5l0-0.2l0-0.3l-0.1-0.9l-0.5-3.7l-1-7.5
			l-2.1-15c-0.6-4.9-1.7-9.7-3.3-14.4c-1.6-4.7-3.5-9.3-5.5-13.9c-2-4.6-4.1-9.2-6-13.9c-1.9-4.7-3.8-9.3-5.7-14
			c-3.9-9.3-7.7-18.6-10.9-28.3c-1.6-4.8-3-9.7-4.1-14.7c-0.3-1.2-0.5-2.5-0.8-3.8c-0.3-1.3-0.5-2.5-0.6-3.8l-0.3-1.9
			c-0.1-0.7-0.2-1.3-0.2-1.9l-0.5-3.7l-3.7-30l-1.8-15l-0.9-7.5l-0.5-3.7l-0.7-3.6c-2.1-9.7-6.2-18.9-9.6-28.4
			c-1.7-4.8-3.3-9.6-4.6-14.5c-1.3-4.9-2.2-9.9-3-15c0-0.1,0-0.1,0-0.2l0,0l-0.3-12c0-2-0.1-4-0.2-6l-0.2-6c-0.1-4-0.4-8-0.5-12
			c-0.1-2-0.2-4-0.3-6l-0.4-6l-0.5-6c-0.1-2-0.3-4-0.5-6c-0.2-2-0.4-4-0.6-6c-0.2-2-0.4-4-0.7-6c-0.3-2-0.5-4-0.8-5.9
			c-0.3-2-0.6-3.9-0.9-5.9c-0.3-2-0.7-3.9-1.1-5.8c-0.2-1-0.4-1.9-0.7-2.9c-0.2-0.9-0.5-1.9-0.8-2.7l0-0.1c0-0.1-0.1-0.2-0.1-0.3
			c-0.3-2.9-1.2-5.8-2.4-8.6c-1.2-2.8-2.8-5.4-4.5-7.9c-0.9-1.2-1.8-2.5-2.8-3.6c-0.5-0.5-1.1-1.2-1.5-1.7c-0.3-0.2-0.5-0.5-0.8-0.7
			l-0.8-0.6c-2.3-1.6-5.1-2.4-8-2.4c-1.5,0-2.9,0.1-4.4,0.3c-1.5,0.3-2.9,0.6-4.3,1.1c-2.9,1-5.7,2.1-8.2,3.8
			c-5.2,3.2-9.4,7.7-12.8,12.7c-3.4,5.1-6.2,10.7-8.8,16.3c-2.5,5.7-4.6,11.5-6.2,17.5c-1.5,6-2.5,12.2-2.6,18.3
			c-0.2,6.2,0.4,12.3,1.4,18.5c1,6.2,2.3,12.3,3.4,18.5c1.1,6.2,2.1,12.4,3.2,18.6c1.1,6.2,2.3,12.4,3.3,18.6
			c1,6.2,1.8,12.5,2.5,18.8c0.7,6.5-0.2,12.9-1.2,19.1c-1.1,6.2-2.2,12.4-3.4,18.6c-1.2,6.2-2.6,12.3-4,18.4l-1.1,4.6
			c-0.2,0.8-0.4,1.5-0.6,2.3c-0.2,0.8-0.6,1.6-0.9,2.3c-0.8,1.4-1.7,2.7-2.6,4c-0.9,1.3-1.8,2.6-2.6,3.9l0,0
			c-0.1,0.2-0.3,0.2-0.4,0.1c0,0-0.1,0-0.1-0.1L480.7-221.5z"/>
	</g>
	<g display="inline">
		<path d="M-106.7-269.9l-1.1-2.6l-0.9-2.7c-0.3-0.9-0.5-1.8-0.7-2.7c-0.3-0.9-0.4-1.8-0.6-2.8c-0.4-1.8-0.7-3.7-1-5.6
			c-0.3-1.9-0.5-3.7-0.7-5.6c-0.2-1.9-0.4-3.8-0.6-5.6c-0.2-1.9-0.3-3.8-0.4-5.7c-0.2-3.8-0.4-7.5-0.4-11.4l0,0.1
			c-0.3-2.8-0.2-5.6,0.1-8.4c0.3-2.8,0.7-5.6,1.3-8.3c1.2-5.5,3-10.7,4.9-15.9l11.4-30.8c1.9-5.1,3.8-10.3,5.6-15.4
			c0.4-1.3,0.9-2.6,1.3-3.8c0.4-1.2,0.7-2.5,0.9-3.8c0.5-2.6,0.8-5.3,0.9-7.9c0.1-2.7,0.2-5.4-0.3-7.9c-0.2-1.3-0.6-2.4-1.1-3.6
			c-0.5-1.1-1.1-2.2-1.9-3.3c-1.5-2.1-3.3-4.1-5.1-6.1c-1.8-2-3.8-3.9-5.7-5.9l0.2,0.1l-1.5-1.1c-0.5-0.4-1.1-0.7-1.6-1
			c-0.5-0.3-1.1-0.7-1.6-1c-0.5-0.3-1.1-0.6-1.7-0.9c-0.6-0.3-1.1-0.6-1.7-0.8c-0.6-0.2-1.1-0.5-1.7-0.7c-1.2-0.4-2.4-0.8-3.6-1.1
			c-2.4-0.7-5-1.1-7.5-1.6c-1.3-0.2-2.6-0.5-3.9-0.8c-1.3-0.3-2.6-0.6-3.9-0.9l0.3,0c-0.4,0-0.9,0-1.4,0c-0.5,0-1,0-1.4,0.1
			c-1,0.1-1.9,0.2-2.9,0.3c-1,0.2-1.9,0.3-2.8,0.6c-0.5,0.1-0.9,0.3-1.4,0.4c-0.5,0.1-0.9,0.3-1.4,0.4c-0.4,0.2-0.9,0.3-1.4,0.5
			l-1.3,0.6c-0.4,0.2-0.9,0.4-1.3,0.6c-0.4,0.2-0.8,0.4-1.2,0.7c-0.4,0.3-0.8,0.5-1.2,0.8l-1.1,0.9c-0.4,0.3-0.8,0.6-1.1,0.9l-1.1,1
			l-0.1,0.1c0,0-0.1,0-0.1,0.1c-2.4,1.8-4.8,3.7-7.2,5.7c-2.4,1.9-4.7,3.9-7.1,5.9c-4.7,4-9.2,8.1-13.7,12.3
			c-8.9,8.4-17.4,17.3-25.2,26.7c-3.9,4.7-7.6,9.6-11,14.6c-1.7,2.5-3.3,5.1-4.9,7.7c-1.6,2.6-3.2,5.2-4.6,7.9
			c-2.8,5.4-5.3,11-6.8,16.9c-1.6,5.9-2.3,12-1.7,18.2c-1.1-6.1-0.8-12.4,0.5-18.5c1.2-6.1,3.3-12,5.9-17.7c1.3-2.8,2.7-5.6,4.2-8.3
			c1.5-2.7,3.2-5.3,5-7.9c3.5-5.1,7.2-10.1,11.2-14.9c7.9-9.6,16.5-18.5,25.4-27c4.5-4.2,9.1-8.4,13.8-12.4c2.3-2,4.7-4,7.1-5.9
			c2.4-2,4.8-3.9,7.3-5.7l-0.2,0.1l1.2-1.1c0.4-0.4,0.8-0.7,1.2-1l1.3-1c0.4-0.3,0.9-0.6,1.4-0.9c0.4-0.3,0.9-0.6,1.4-0.8
			c0.5-0.2,0.9-0.5,1.4-0.7l1.5-0.6c0.5-0.2,1-0.4,1.5-0.6c0.5-0.2,1-0.3,1.5-0.5c0.5-0.1,1-0.3,1.5-0.4c1-0.3,2.1-0.4,3.1-0.6
			c1-0.1,2.1-0.3,3.1-0.3c0.5,0,1.1-0.1,1.6-0.1c0.5,0,1,0,1.6,0c0.1,0,0.2,0,0.2,0l0,0c1.2,0.3,2.5,0.6,3.7,0.9
			c1.3,0.3,2.5,0.5,3.8,0.7c2.6,0.5,5.2,0.9,7.8,1.6c1.3,0.3,2.6,0.7,3.9,1.2c0.6,0.2,1.3,0.5,1.9,0.8c0.6,0.2,1.2,0.6,1.8,0.9
			c0.6,0.3,1.2,0.6,1.8,0.9c0.6,0.3,1.2,0.7,1.7,1c0.6,0.4,1.2,0.7,1.7,1.1l1.6,1.2c0.1,0,0.1,0.1,0.1,0.1l0,0c1.9,2,3.8,3.9,5.7,6
			c1.9,2,3.8,4.1,5.4,6.5c0.8,1.2,1.6,2.5,2.2,3.8c0.6,1.4,1.1,2.8,1.3,4.3c0.5,2.9,0.4,5.8,0.3,8.5c-0.1,2.8-0.4,5.6-1,8.4
			c-0.3,1.4-0.6,2.8-1,4.1c-0.4,1.4-0.9,2.6-1.3,3.9c-1.8,5.2-3.7,10.3-5.6,15.5l-11.4,30.8c-1.9,5.1-3.6,10.3-4.7,15.5
			c-0.6,2.6-1,5.3-1.2,7.9c-0.2,2.7-0.2,5.3-0.2,8l0,0.1c-0.2,3.7-0.2,7.5-0.2,11.2c0,1.9,0,3.8,0.1,5.6c0.1,1.9,0.1,3.8,0.2,5.6
			c0.1,1.9,0.2,3.7,0.4,5.6l0.3,2.8c0.1,0.9,0.2,1.9,0.4,2.8c0.1,0.9,0.2,1.9,0.4,2.8c0.2,0.9,0.3,1.9,0.5,2.8l0.7,2.7L-106.7-269.9
			z"/>
	</g>
	<g display="inline">
		<path d="M229.1-186.1c1.6-0.6,3.1-1.1,4.6-1.8c1.5-0.7,3-1.5,4.1-2.7c1.1-1.2,1.7-2.8,1.4-4.3c-0.1-0.4-0.1-0.8-0.3-1.1
			c-0.1-0.4-0.3-0.7-0.5-1.1c-0.3-0.8-0.7-1.6-1-2.3c-1.2-3.2-2-6.4-2.9-9.6c-0.5-1.6-1-3.1-1.6-4.7c-0.6-1.6-1-3.2-1.5-4.8
			l-0.7-2.4l-0.6-2.5c-0.3-1.6-0.7-3.3-0.9-5c-0.1-0.8-0.3-1.7-0.4-2.5c-0.1-0.8-0.2-1.7-0.3-2.5c-0.2-1.7-0.3-3.4-0.4-5l-0.1-2.5
			l0-2.5c0-1.7,0-3.4,0.1-5.1c0.1-1.7,0.2-3.4,0.3-5c0.1-1.7,0.4-3.3,0.6-5l0,0c0-0.1,0-0.2,0.1-0.3c0.8-1.9,1.5-3.8,2.4-5.6
			c0.9-1.8,1.7-3.7,2.9-5.5c0.5-0.9,1-1.8,1.6-2.6l1.8-2.5c0.6-0.9,1.4-1.6,2-2.4c0.4-0.4,0.7-0.8,1.1-1.2l1.2-1.1l1.2-1.1
			c0.4-0.3,0.9-0.6,1.3-0.9c0.9-0.6,1.7-1.3,2.7-1.7c0.9-0.5,1.9-1,2.9-1.4c1-0.4,2-0.8,3-1c1-0.3,2.1-0.6,3.1-0.7
			c1-0.2,2.1-0.3,3.1-0.4c1-0.1,2.1-0.1,3.1-0.1c1,0,2.1,0,3.1,0.2c1,0.1,2.1,0.2,3.1,0.3c1,0.2,2,0.3,3,0.5c2,0.4,4,0.8,6,1.2
			l11.8,2.4l5.9,1.2l1.5,0.3c0.6,0.1,1,0.2,1.5,0.3c1.1,0.3,2.1,0.6,3,0.9c3.9,1.3,7.6,2.9,11.3,4.7l-0.1-0.1
			c7,2.5,14.3,4.6,21.5,6.9c3.6,1.2,7.2,2.3,10.8,3.7c3.7,1.4,7.1,3.9,9.7,6.9c1.3,1.5,2.5,3.1,3.5,4.8c1,1.7,1.9,3.4,2.7,5.1
			l5.1,10.1l10.3,20.1l20.6,40.3c1.7,3.3,3.4,6.7,5.2,10l5.3,10l10.7,19.9c1,1.8,1.7,3.6,2.3,5.5c0.6,1.9,0.9,3.9,1,5.9
			c0.1,2,0,4-0.5,6l-0.4,1.5l-0.1,0.2c0,0,0,0.1,0,0.1l0,0.1l-0.1,0.3l-0.2,0.7c-0.2,0.4-0.3,0.9-0.5,1.3l-0.7,1.4l-0.3,0.7
			l-0.4,0.7c-0.3,0.4-0.5,0.9-0.8,1.3c-0.6,0.8-1.2,1.7-2,2.4c-1.4,1.5-3.1,2.8-5,3.6c-3.8,1.7-8,1.9-11.9,1.3
			c-3.9-0.6-7.6-1.8-11.2-3.4c-3.5-1.6-6.9-3.4-10.1-5.6c-0.9-0.6-1.6-1.2-2.3-1.8l-2.2-1.8c-1.5-1.2-2.9-2.4-4.4-3.6
			c-2.9-2.5-5.7-5-8.5-7.6c-5.5-5.2-10.8-10.8-15.5-16.7c-2.4-3-4.6-6.1-6.7-9.3c-2.1-3.2-4-6.5-5.9-9.7
			c-3.9-6.5-7.8-12.9-11.9-19.2c-3.9-6.4-7.8-12.9-11.7-19.4l1.2,0.5l-3.5,0.6l-3.5,0.4l-3.5,0.1l-3.5-0.1l-3.5-0.3l-3.5-0.5
			c-1.1-0.2-2.3-0.5-3.4-0.7c-1.1-0.3-2.3-0.6-3.4-0.9c-1.1-0.4-2.2-0.7-3.3-1.1c-1.1-0.4-2.2-0.8-3.3-1.2c-1.1-0.4-2.2-0.9-3.2-1.3
			c-1.1-0.5-2.1-1-3.2-1.5l-3.1-1.5l-3.1-1.6l-3-1.7l-3-1.8l3.1,1.6l3.1,1.6l3.1,1.5l3.2,1.4c1.1,0.5,2.1,0.9,3.2,1.3
			c1.1,0.4,2.2,0.8,3.2,1.2c1.1,0.4,2.2,0.7,3.3,1.1c1.1,0.3,2.2,0.6,3.3,0.9c1.1,0.3,2.2,0.5,3.3,0.8c1.1,0.2,2.3,0.4,3.4,0.6
			l3.4,0.4l3.4,0.2l3.4,0l3.4-0.3l3.4-0.5l3.3-0.7c0.5-0.1,1,0.1,1.2,0.5c4.1,6.3,8.3,12.6,12.3,19c4,6.4,8,12.8,11.8,19.3
			c2,3.3,3.8,6.5,5.8,9.6c2,3.1,4.2,6.1,6.5,9.1c4.6,5.9,9.8,11.3,15.2,16.4c5.4,5.1,11.3,10,17.1,14.5c3,2,6.3,3.8,9.6,5.3
			c3.4,1.5,6.9,2.6,10.4,3.1c3.5,0.5,7.2,0.3,10.3-1.1c1.6-0.7,2.9-1.7,4.1-2.9c0.6-0.6,1.1-1.3,1.6-2l0.7-1.1l0.3-0.6l0.3-0.6
			l0.6-1.2c0.2-0.4,0.3-0.9,0.5-1.3l0.2-0.7l0.1-0.3l0-0.1c0,0,0,0.1,0,0l0-0.2l0.3-1.3c0.4-1.7,0.5-3.4,0.4-5.2
			c-0.2-3.5-1.3-7.1-2.9-10.1l-10.7-20l-5.3-10c-1.8-3.4-3.5-6.7-5.2-10.1l-20.6-40.3l-10.3-20.1l-5.1-10.1
			c-0.9-1.7-1.7-3.3-2.6-4.9c-0.9-1.5-2-3-3.2-4.4c-2.4-2.7-5.2-4.8-8.5-6.1c-3.4-1.3-7-2.5-10.6-3.6c-7.2-2.3-14.4-4.3-21.6-6.9
			c0,0-0.1,0-0.1-0.1l0,0c-3.6-1.7-7.3-3.3-11-4.5c-0.9-0.3-1.9-0.6-2.7-0.8c-0.5-0.1-1-0.2-1.4-0.3l-1.5-0.3l-5.9-1.2l-11.8-2.4
			c-2-0.4-4-0.8-5.9-1.2c-1-0.2-1.9-0.3-2.9-0.5c-1-0.2-1.9-0.2-2.9-0.3c-1-0.1-1.9-0.1-2.9-0.1c-1-0.1-1.9,0-2.9,0.1
			c-1,0-1.9,0.2-2.9,0.3c-1,0.1-1.9,0.4-2.8,0.6c-0.9,0.2-1.8,0.6-2.7,0.9c-0.9,0.3-1.7,0.8-2.6,1.2c-0.9,0.4-1.6,1-2.4,1.5
			c-0.4,0.3-0.8,0.5-1.2,0.8l-1.1,1l-1.1,1c-0.4,0.3-0.6,0.7-1,1.1c-0.6,0.7-1.3,1.4-1.9,2.2l-1.7,2.4c-0.6,0.8-1,1.7-1.5,2.5
			c-1.1,1.6-1.8,3.5-2.7,5.2c-0.8,1.8-1.5,3.6-2.3,5.5l0.1-0.3l-0.6,4.9c-0.2,1.6-0.4,3.3-0.5,4.9c-0.1,1.6-0.2,3.3-0.3,4.9
			l-0.1,2.5l0,2.5c0,1.6,0.1,3.3,0.2,4.9c0,0.8,0.1,1.6,0.2,2.5c0.1,0.8,0.1,1.6,0.3,2.5c0.2,1.6,0.5,3.3,0.7,4.9l0.5,2.4l0.5,2.4
			c0.4,1.6,0.8,3.2,1.3,4.8c0.5,1.6,1,3.2,1.4,4.8c0.9,3.2,1.5,6.5,2.6,9.6c0.3,0.8,0.5,1.5,0.8,2.3c0.3,0.8,0.6,1.6,0.7,2.5
			c0.1,0.4,0,0.9,0,1.3c-0.1,0.4-0.1,0.9-0.3,1.3c-0.3,0.8-0.9,1.5-1.5,2.1c-1.3,1.2-2.8,1.9-4.3,2.6
			C232.3-187,230.7-186.5,229.1-186.1z"/>
	</g>
	<g display="inline">
		<path d="M-1.4-195.9c0,0,0.3,0.1,0.8,0.2c0.6,0.1,1.4,0.3,2.4,0.6c1.1,0.3,2.3,0.8,3.8,0.7c1.5-0.1,3.3-0.4,5.3-0.8
			c4-0.8,8.8-1.8,14.2-3.4c2.7-0.8,5.6-1.7,8.5-2.7c3-1,6.1-2,9.3-3.3c6.4-2.5,13.2-5.8,19.9-10c6.7-4.2,13.2-9.4,19.6-15.2
			c6.4-5.9,12.6-12.3,19-18.9c6.3-6.7,13.4-12.8,17.9-20.6c1.1-1.9,2.1-4,2.8-6.1c0.4-1.1,0.7-2.1,0.9-3.2c0.3-1.1,0.5-2.3,0.7-3.4
			c0.9-4.5,1.7-9,2.6-13.6c0.9-4.5,1.8-9,3-13.4c1.2-4.4,2.5-8.6,4-12.8c1.5-4.2,3.2-8.2,5.3-12c2.1-3.7,4.7-7.2,7.6-10.1
			c0.7-0.8,1.5-1.4,2.3-2.1c0.8-0.7,1.6-1.3,2.4-1.9l0.6-0.5l0.2-0.1l0.2-0.1l0.3-0.2l1.2-0.8c0.9-0.5,1.7-1.1,2.6-1.5
			c1.7-0.9,3.5-1.7,5.3-2.3c1.8-0.6,3.7-1,5.5-1.2c3.6-0.4,7.1-0.5,10.3,0c0.8,0.1,1.6,0.2,2.4,0.4c0.4,0.1,0.8,0.1,1.2,0.2l0.6,0.1
			l0.1,0l0.2,0l0.3,0.1c1.5,0.4,2.9,0.8,4.3,1.3c5.4,1.9,10,4.4,12.9,7.5c1.4,1.5,2.5,3.2,2.9,4.8c0.5,1.6,0.5,3,0.3,4.1
			c-0.1,0.6-0.2,1-0.3,1.4c-0.1,0.4-0.2,0.7-0.3,1c-0.2,0.5-0.3,0.8-0.3,0.8s0.1-0.3,0.2-0.8c0.1-0.3,0.2-0.6,0.2-1
			c0.1-0.4,0.2-0.9,0.2-1.4c0.1-1.1,0-2.4-0.6-3.8c-0.6-1.4-1.6-2.9-3.1-4.2c-2.9-2.6-7.4-4.7-12.8-6.2c-1.3-0.4-2.7-0.7-4.2-0.9
			l-0.3,0c0,0-0.1,0-0.1,0l-0.1,0l-0.6-0.1c-0.4,0-0.7-0.1-1.1-0.1c-0.8-0.1-1.5-0.1-2.3-0.2c-1.6-0.1-3.1-0.2-4.7-0.2
			c-1.6,0-3.2,0.1-4.9,0.3c-1.6,0.2-3.3,0.6-4.9,1.1c-1.6,0.5-3.2,1.3-4.8,2.1c-0.8,0.4-1.6,0.9-2.3,1.4l-1.2,0.8l-0.3,0.2l-0.1,0.1
			l-0.1,0.1l-0.6,0.4c-0.7,0.6-1.5,1.1-2.2,1.8c-0.7,0.6-1.4,1.2-2.1,1.9c-2.7,2.7-5.1,5.9-7.1,9.5c-2,3.6-3.7,7.4-5.1,11.5
			c-1.5,4-2.7,8.3-3.9,12.6c-1.1,4.3-2.1,8.7-2.9,13.2c-0.9,4.5-1.6,9-2.6,13.6c-0.2,1.2-0.5,2.2-0.8,3.4c-0.3,1.2-0.6,2.3-1,3.5
			c-0.8,2.3-1.8,4.5-3.1,6.6c-2.4,4.2-5.5,7.9-8.7,11.3c-3.2,3.4-6.5,6.6-9.7,9.9c-6.4,6.6-12.6,13.1-19.1,19.1
			c-6.5,5.9-13.2,11.3-20.1,15.6c-6.9,4.3-13.8,7.6-20.4,10.2c-3.3,1.2-6.4,2.5-9.6,3.4c-3.1,0.8-6.1,1.5-8.9,2.1
			c-5.6,1.1-10.5,1.8-14.6,2.3c-2,0.2-3.8,0.4-5.5,0.4c-1.7-0.1-2.9-0.8-3.9-1.1c-1-0.4-1.8-0.6-2.4-0.8
			C-1.1-195.8-1.4-195.9-1.4-195.9z"/>
	</g>
	<g display="inline">
		<path d="M201.5-332.9c-0.4,2.2-0.8,4.4-1.5,6.5c-0.7,2.2-1.6,4.2-2.4,6.3c-0.9,2-1.7,4.1-2.5,6.1c-0.8,2.1-1.5,4.1-2.3,6.2
			c-0.7,2.1-1.6,4.1-2.3,6.2c-0.7,2.1-1.3,4.2-1.9,6.3c-0.6,2.1-1.1,4.2-1.5,6.4c-0.5,2.2-0.8,4.3-1.2,6.5c-0.4,2.2-0.8,4.4-1.2,6.6
			c-0.4,2.2-0.8,4.4-1.3,6.6c-0.9,4.4-1.8,8.7-2.8,13.1c-1.9,8.7-4,17.3-5.8,26l-0.5-1.5l20.9,16.7l10.5,8.4l5.2,4.2
			c1.7,1.4,3.5,2.8,5.3,4.1c3.5,2.7,7.1,5.5,10.6,8.3c1.7,1.4,3.5,2.8,5.2,4.3l2.6,2.2c0.9,0.7,1.7,1.4,2.5,2.2
			c0.8,0.8,1.6,1.6,2.4,2.4c0.8,0.8,1.6,1.6,2.3,2.4c1.6,1.6,3.1,3.3,4.5,5c1.5,1.7,2.9,3.4,4.3,5.2l2,2.7l1.9,2.8l-2.3-2.5
			l-2.3-2.4c-1.6-1.6-3.1-3.2-4.8-4.7c-1.6-1.5-3.3-3-5-4.4c-1.7-1.4-3.4-2.9-5.2-4.2c-1.7-1.4-3.3-2.9-5.1-4.3
			c-1.7-1.4-3.4-2.8-5.2-4.2c-3.5-2.8-7-5.5-10.5-8.2c-1.8-1.4-3.5-2.7-5.3-4.1l-5.2-4.2l-10.5-8.4l-20.9-16.7
			c-0.5-0.4-0.6-1-0.5-1.5c1.9-8.7,3.9-17.4,5.9-26c1-4.3,1.9-8.7,2.8-13c0.4-2.2,0.9-4.3,1.3-6.5c0.4-2.2,0.8-4.3,1.2-6.5
			c0.4-2.2,0.7-4.4,1.2-6.6c0.5-2.2,1-4.4,1.6-6.6c0.6-2.2,1.3-4.3,2-6.5c0.7-2.1,1.4-4.3,2.3-6.3c1.8-4.1,3.9-8.1,6.1-12
			c1.1-1.9,2.2-3.9,3.1-5.9C200.1-328.6,200.8-330.7,201.5-332.9z"/>
	</g>
	<g display="inline">
		<path fill="none" d="M410.7-106.2"/>
	</g>
	<g display="inline">
		<path d="M389.6-188c3.4,5,7.1,9.9,11.1,14.5c2,2.3,4.1,4.5,6.2,6.6c2.2,2.1,4.5,4,7.1,5.5c1.2,0.8,2.7,1.4,4,2.1
			c1.4,0.7,2.7,1.3,4.1,1.9c1.4,0.6,2.8,1.1,4.2,1.4c1.4,0.3,2.9,0.5,4.3,0.5c2.9-0.1,5.7-1.1,8.2-2.5c0.7-0.3,1.3-0.7,1.9-1.1
			c0.3-0.2,0.7-0.4,0.9-0.6c0.2-0.2,0.4-0.4,0.6-0.6c0.9-1,1.5-2.3,2-3.6c0.2-0.7,0.4-1.3,0.5-2l0.3-2.2l0.1-1.1l0-1.1l0-2.2
			c-0.2-2.9-0.5-5.9-1.1-8.8c-1.2-5.8-3.1-11.5-5.3-17.2l-3.3-8.5c-0.5-1.4-1.1-2.9-1.5-4.4c-0.2-0.7-0.4-1.6-0.6-2.3l-0.3-1l-0.3-1
			c-1-2.8-2.1-5.6-3.3-8.4l-3.4-8.5c-2.3-5.7-4.6-11.3-6.7-17.1l-3-8.7c-1-2.9-2-5.7-3.1-8.6l-6.5-17.1c-2.2-5.7-4.3-11.5-6.4-17.1
			c-1.1-2.7-2.3-5.5-3.8-8c-1.5-2.5-3.3-4.9-5.3-7c-2-2-4.4-3.8-6.9-5.2c-2.7-1.4-5.4-2.7-8.1-4c-5.5-2.5-11.1-4.8-16.8-7.1
			c-5.6-2.3-11.3-4.6-16.9-7.2l0.4,0.1c-4.2-0.5-8.2-1.5-12.2-2.4c-4-0.9-8-1.9-11.9-2.4l0,0c-0.5-0.1-0.9-0.4-1.1-0.8
			c-2.1-3.9-3.8-8.1-4.9-12.4c-1.1-4.3-1.6-8.9-1.3-13.3c0.2-4.5,1.2-8.9,2.6-13.1c1.4-4.2,3.3-8.2,5.4-12.1c0.5-1,1-1.9,1.6-2.9
			l0.8-1.4l0.2-0.4l0.1-0.1l0.1-0.2l0.1-0.2l0.5-0.7l0.9-1.3c0.2-0.2,0.3-0.4,0.5-0.7l0.6-0.7l1.2-1.3c0.4-0.4,0.8-0.9,1.2-1.2
			c3.2-3.2,7.1-5.7,11.2-7.4c4.1-1.8,8.5-2.9,12.9-3.5c4.4-0.5,9-0.5,13.4,0.4c0.6,0.1,1.1,0.2,1.6,0.3l1.6,0.4
			c1.1,0.2,2.2,0.7,3.2,1c0.5,0.2,1.1,0.4,1.6,0.6l1.5,0.7c1,0.5,2.1,1,3,1.5c3.8,2.1,7.6,4.3,11.3,6.6c7.4,4.5,14.7,9.4,21.7,14.6
			c7,5.2,13.7,10.7,20.3,16.5c6.5,5.8,12.8,11.8,18.8,18.2l1.1,1.2l1.1,1.4c0.4,0.5,0.7,0.9,1,1.4c0.3,0.5,0.7,0.9,0.9,1.4
			c1.2,1.9,2.1,4,3,6.1c1.6,4.2,2.5,8.6,3.2,12.9l1,6.4c0.4,2.1,0.8,4.3,1.2,6.3c0.9,4.2,2,8.3,3.2,12.5c2.4,8.3,5.2,16.5,7.7,24.8
			c1.2,4.2,2.4,8.4,3.4,12.7c0.5,2.1,0.9,4.3,1.3,6.4l0.5,3.3c0.2,1.1,0.3,2.2,0.4,3.3l0.3,3.3c0.1,1.1,0.1,2.2,0.2,3.3l0.1,3.2
			c0.1,1,0.2,2,0.4,3c0.7,4.1,2.1,8.3,2.5,12.9c0,0.6,0.1,1.1,0.1,1.6l0,1.8c-0.1,1.2-0.2,2.3-0.5,3.4c-0.5,2.3-1.6,4.5-3.3,6.2
			c-1.7,1.7-3.8,2.9-5.9,3.6c-2.2,0.7-4.4,1.1-6.6,1.3c-0.6,0-1.1,0.1-1.7,0.1l-0.9,0l-0.8,0c-1.1,0-2.2,0-3.3-0.1
			c-1.1-0.1-2.2-0.2-3.3-0.4c-1.1-0.2-2.2-0.4-3.2-0.7c-4.3-1.1-8.4-2.9-12-5.4c-7.3-5-12.6-12.2-16.7-19.8
			c4.3,7.5,9.9,14.4,17.2,19c3.6,2.3,7.6,3.9,11.8,4.8c1,0.2,2.1,0.3,3.1,0.5c1.1,0.1,2.1,0.2,3.2,0.3c1,0.1,2.2,0,3.2,0l0.8,0
			l0.8-0.1c0.5,0,1.1-0.1,1.6-0.1c2.1-0.2,4.2-0.7,6.1-1.4c1.9-0.7,3.7-1.8,5-3.2c1.3-1.4,2.2-3.3,2.6-5.2c0.2-1,0.3-2,0.3-3l0-1.5
			c0-0.5-0.1-1.1-0.1-1.6c-0.4-4.1-2-8.2-2.8-12.6c-0.2-1.1-0.4-2.2-0.5-3.4c-0.1-0.6-0.1-1.1-0.1-1.7l-0.1-1.6l-0.1-3.2l-0.3-3.2
			c-0.1-1.1-0.2-2.1-0.4-3.2l-0.5-3.2c-0.4-2.1-0.8-4.2-1.3-6.3c-0.9-4.2-2.1-8.3-3.3-12.5c-2.5-8.3-5.3-16.5-7.7-24.8
			c-1.2-4.2-2.3-8.4-3.3-12.7c-0.5-2.2-0.8-4.2-1.2-6.4l-1-6.4c-0.7-4.2-1.6-8.4-3.1-12.3c-0.8-1.9-1.6-3.8-2.7-5.6
			c-0.2-0.5-0.6-0.9-0.8-1.3c-0.3-0.4-0.6-0.9-0.9-1.3l-0.9-1.2l-1.1-1.2c-5.9-6.2-12.1-12.2-18.6-17.9
			c-6.4-5.7-13.1-11.2-20.1-16.3c-6.9-5.1-14.1-10-21.4-14.4c-3.7-2.3-7.4-4.4-11.2-6.5c-1-0.6-1.9-1-2.8-1.4l-1.4-0.7
			c-0.5-0.2-1-0.4-1.5-0.5c-1-0.3-1.9-0.7-3-0.9l-1.5-0.4c-0.5-0.1-1-0.3-1.5-0.3c-4.1-0.8-8.3-0.8-12.5-0.3
			c-4.2,0.5-8.2,1.6-12.1,3.2c-3.8,1.6-7.4,3.9-10.3,6.8c-1.4,1.4-2.7,2.9-3.9,4.8l-0.5,0.7l-0.1,0.2c0,0-0.1,0.1,0,0l-0.1,0.1
			l-0.2,0.3l-0.8,1.4c-0.5,0.9-1.1,1.9-1.6,2.8c-4,7.5-7.2,15.6-7.6,23.9c-0.2,4.2,0.2,8.4,1.3,12.4c1,4.1,2.7,8,4.6,11.7l-1.1-0.8
			c4.2,0.5,8.2,1.5,12.2,2.4c4,0.9,8,1.9,11.9,2.3c0.2,0,0.3,0.1,0.4,0.1c5.5,2.5,11.1,4.8,16.8,7.1c5.6,2.3,11.3,4.6,16.9,7.2
			c2.8,1.3,5.6,2.6,8.3,4c2.9,1.5,5.4,3.5,7.7,5.7c2.2,2.3,4.1,4.8,5.7,7.5c1.6,2.7,2.9,5.5,4,8.5c2.1,5.8,4.2,11.4,6.3,17.1
			l6.5,17.1c1.1,2.9,2.1,5.7,3.1,8.6l3,8.6c2.1,5.7,4.3,11.3,6.6,17l3.4,8.5c1.1,2.8,2.3,5.6,3.3,8.6l0.4,1.2l0.3,1.2
			c0.2,0.7,0.3,1.4,0.6,2.1c0.4,1.4,1,2.8,1.5,4.2l3.3,8.5c2.2,5.7,4.4,11.5,5.5,17.7l0.4,2.3l0.3,2.3l0.1,1.2l0,1.2l0.1,2.4
			l-0.1,2.4l-0.1,1.2l-0.2,1.1l-0.4,2.3c-0.2,0.8-0.4,1.6-0.7,2.4c-0.6,1.5-1.4,3-2.6,4.3c-0.3,0.3-0.6,0.6-1,0.9
			c-0.4,0.3-0.7,0.4-1,0.6c-0.7,0.4-1.3,0.8-2.1,1.1c-2.8,1.4-6,2.4-9.2,2.4c-1.6,0-3.2-0.3-4.8-0.7c-1.5-0.4-3-1-4.4-1.6
			c-1.4-0.6-2.8-1.3-4.1-2.1c-1.4-0.7-2.7-1.4-4-2.2c-2.7-1.7-5-3.7-7.1-5.9c-2.1-2.2-4.2-4.5-6.1-6.9
			C396.4-177.9,392.9-182.9,389.6-188z"/>
	</g>
	<g display="inline">
		<path d="M-264.4-292.1c-0.4-2.1-1.4-4.2-1.2-6.5l0.3-3.3l0.3-3.3c0.5-4.4,1.2-8.7,2.1-13.1c1.7-8.7,4-17.2,6.5-25.6
			c1.3-4.2,2.6-8.4,3.9-12.6c1.3-4.2,2.4-8.4,3.3-12.7c0.9-4.3,1.6-8.6,2.1-12.9c0.4-4.3,0.7-8.7,0.6-13c0-2.2-0.1-4.3-0.2-6.5
			l-0.3-3.2l-0.1-1.6l-0.2-1.6c-0.5-4.3-1.4-8.6-2.4-12.8c-0.6-2.1-1.1-4.2-1.9-6.2l-0.5-1.5l-0.2-0.7l-0.3-0.8l-0.6-1.5
			c-0.2-0.5-0.4-1-0.6-1.5c-0.8-1.9-1.9-3.8-2.9-5.7c-1.1-1.8-2.3-3.6-3.7-5.2c-2.7-3.3-6-6.1-9.6-8.3c-3.6-2.3-7.5-3.9-11.7-5.2
			c-4.1-1.3-8.3-2.4-12.2-1.6c-3.9,0.7-7.1,3.6-9.9,6.8l0.1-0.1l-1.4,2.1l0.1-0.1c-2.2,4.2-3.8,8.7-4.9,13.3
			c-1.1,4.6-1.8,9.4-2.2,14.2l-0.6,7.3c-0.1,1.2-0.2,2.4-0.3,3.6l-0.4,3.7c-0.3,2.4-0.7,4.9-1.1,7.3c-0.4,2.4-0.8,4.8-1.4,7.2
			c-1,4.8-2.2,9.5-3.5,14.3c-1.4,4.7-2.8,9.4-4.4,14c-0.8,2.3-1.7,4.6-2.5,6.9c-0.9,2.3-1.7,4.6-2.7,6.8c-1.8,4.5-3.8,9-5.8,13.5
			l-6.1,13.3l-6,13.3c-4,8.9-8,17.7-12.2,26.5l-0.8,1.6c-0.2,0.5-0.5,1.1-0.7,1.6l-0.4,0.8l-0.3,0.8c-0.2,0.5-0.4,1.1-0.6,1.6
			c-0.7,2.2-1.2,4.5-1.5,6.9c-0.7,4.7-0.7,9.5-0.6,14.3c0,2.4,0.1,4.9,0.1,7.3l0,7.3l0,7.3l0,1.8c0,0.2,0,0.2,0,0.5l0,0.5l0,0.9
			l-0.2,3.6c0,0,0,0.1,0,0.1c-2.2,17.9-3.4,35.9-6.1,53.9c-1.3,9-3.1,17.9-5.2,26.7c-1.1,4.4-2.3,8.8-3.5,13.1
			c-1.3,4.3-2.2,8.6-3,13c-1.4,8.8-1.8,17.7-1.2,26.7c0.3,4.5,0.8,8.9,1.4,13.3c0.7,4.4,1.5,8.9,2.3,13.3
			c3.2,17.8,6.6,35.5,9.3,53.4c1.4,8.9,2.6,17.9,3.6,26.9c1,9,2,18,2.8,27c0.8,9,1.5,18,2.2,27c0.7,9,1.3,18,1.6,27.1
			c0.5,18.1,0.1,36.2-0.6,54.2c-0.4,9-0.9,18-1.4,27.1l-0.9,13.5l-0.5,6.8l-0.2,3.4c0.1,1.2-0.7,2.1-1.2,3.2c0.4-1,1.2-2,1.1-3.2
			l0.1-3.4l0.3-6.8l0.5-13.5c0.3-9,0.6-18,0.7-27.1c0.3-18,0.1-36.1-0.8-54.1c-0.4-9-0.9-18-1.6-27c-0.7-9-1.4-18-2.2-27
			c-0.8-9-1.7-17.9-2.8-26.9c-1.1-8.9-2.2-17.9-3.6-26.8c-2.8-17.8-6.2-35.5-9.3-53.3c-0.8-4.5-1.6-8.9-2.3-13.4
			c-0.7-4.5-1.2-9-1.5-13.6c-0.6-9.1-0.2-18.3,1.3-27.3c0.7-4.5,1.8-9,3-13.4c1.3-4.3,2.4-8.7,3.5-13c2.2-8.7,3.9-17.5,5.2-26.4
			c2.6-17.8,3.9-35.8,6.1-53.8l0,0.1l0.2-3.6l0-0.9l0-0.5c0,0,0-0.3,0-0.4l0-1.8l0-7.3l0-7.3c0-2.4-0.1-4.8-0.1-7.3
			c-0.1-4.9-0.1-9.8,0.6-14.8c0.4-2.5,0.9-5,1.7-7.4c0.2-0.6,0.4-1.2,0.6-1.8l0.3-0.9l0.4-0.8c0.3-0.6,0.5-1.1,0.8-1.7l0.8-1.6
			c4.2-8.7,8.2-17.6,12.2-26.5l6-13.3l6.1-13.3c2-4.4,3.9-8.9,5.7-13.4c0.9-2.2,1.8-4.5,2.7-6.8c0.8-2.3,1.7-4.5,2.5-6.8
			c1.6-4.6,3-9.2,4.4-13.8c1.3-4.7,2.5-9.3,3.4-14.1c0.5-2.4,0.9-4.7,1.3-7.1c0.4-2.4,0.8-4.8,1-7.1l0.4-3.6
			c0.1-1.2,0.2-2.4,0.3-3.6l0.6-7.3c0.4-4.9,1.1-9.8,2.2-14.6c1.2-4.8,2.9-9.6,5.2-14c0,0,0.1-0.1,0.1-0.1l1.4-2.1l0,0
			c0,0,0.1-0.1,0.1-0.1c1.5-1.7,3.1-3.4,5-4.7c1.9-1.4,4.1-2.5,6.5-3c2.4-0.5,4.8-0.4,7.1,0c2.3,0.4,4.5,1,6.6,1.7
			c4.3,1.3,8.5,3.1,12.4,5.6c3.8,2.4,7.4,5.4,10.3,9c1.5,1.7,2.8,3.6,4,5.5c1.2,2,2.2,3.9,3.1,6c0.5,1.1,0.9,2.1,1.3,3.1l0.3,0.8
			l0.3,0.8l0.5,1.6c0.7,2.1,1.3,4.3,1.9,6.4c1.1,4.3,2,8.7,2.6,13.1l0.2,1.7l0.1,1.7l0.3,3.3c0.1,2.2,0.2,4.5,0.1,6.7
			c0,4.5-0.4,8.9-1,13.3c-0.5,4.4-1.5,8.8-2.5,13.1c-1.1,4.3-2.3,8.6-3.7,12.8c-1.4,4.2-2.9,8.3-4.2,12.5
			c-2.7,8.4-5.2,16.8-7.2,25.4c-1,4.3-1.8,8.6-2.5,13l-0.5,3.3l-0.4,3.3C-265.7-296.4-264.8-294.3-264.4-292.1z"/>
	</g>
	<g display="inline">
		<path fill="none" d="M-321.5-211.4"/>
	</g>
	<g display="inline">
		<path d="M-151.2-438.9c0,0-0.6,0.6-1.8,1.6c-0.3,0.3-0.6,0.5-1,0.9c-0.3,0.3-0.7,0.7-1.1,1.1c-0.4,0.4-0.8,0.8-1.2,1.3
			c-0.4,0.5-0.8,1-1.3,1.6c-1.8,2.2-3.7,5.1-5.7,8.6c-1,1.7-1.9,3.6-2.9,5.7c-0.5,1-1,2-1.6,3.1c-0.6,1-1.1,2.1-1.7,3.2
			c-2.2,4.4-4.5,9.3-7.2,14.4c-1.3,2.6-2.8,5.1-4.5,7.7c-1.6,2.5-3.3,5.1-5,7.7c-6.8,10.4-14.2,21.5-22.1,32.2
			c-3.9,5.4-8,10.7-12.1,15.8c-4.1,5.1-8.3,10-12.5,14.6c-4.2,4.6-8.5,8.9-12.5,12.9c-4,4-7.9,7.8-11.5,11.3
			c-0.9,0.9-1.8,1.7-2.6,2.5c-0.8,0.8-1.7,1.6-2.6,2.4c-1.7,1.5-3.4,2.9-5,4.1c-3.1,2.6-5.9,4.8-8.2,6.5c-2.3,1.8-4.2,3.1-5.4,4
			c-1.3,0.9-1.9,1.4-1.9,1.4s0.6-0.6,1.8-1.6c1.1-1.1,2.8-2.6,4.9-4.6c2.1-2,4.6-4.5,7.5-7.3c1.4-1.4,2.9-3,4.5-4.6
			c1.6-1.7,3.4-3.2,5.1-4.9c3.6-3.4,7.4-7.2,11.4-11.3c4-4.1,8.3-8.3,12.4-12.8c4.2-4.6,8.4-9.4,12.4-14.5c4.1-5.1,8.1-10.3,12-15.7
			c7.8-10.7,15.2-21.7,22-32.1c1.7-2.6,3.4-5.2,5-7.7c1.6-2.5,3-5,4.3-7.5c2.6-5,4.9-9.9,7.1-14.4c1.2-2.2,2.1-4.4,3.3-6.4
			c1.2-2,2.4-3.8,3.6-5.5c0.6-0.8,1.2-1.7,1.8-2.4c0.6-0.8,1.1-1.5,1.7-2.2c1.2-1.3,2.2-2.6,3.3-3.6c0.5-0.5,1-1,1.5-1.5
			c0.5-0.4,1-0.8,1.4-1.2c0.4-0.4,0.8-0.7,1.2-1c0.4-0.3,0.8-0.5,1.1-0.7C-151.9-438.4-151.2-438.9-151.2-438.9z"/>
	</g>
	<g display="inline">
		<path d="M-88.5-387.9c0,0,0.7-0.1,2-0.2c1.3-0.2,3.3-0.4,5.8-0.6c2.5-0.2,5.6-0.4,9.1-0.2c1.8,0.1,3.7,0.3,5.7,0.8
			c2,0.5,4,1.4,6,2.6c4,2.3,7.4,6.2,9.6,10.8c2.3,4.6,3.7,9.7,4.7,15.1c0.5,2.7,0.8,5.4,1.1,8.2c0.1,1.5,0.2,2.8,0.3,4.2
			c0.1,1.4,0.1,2.8,0.1,4.3c0,5.7-0.3,11.4-0.9,17.1c-0.6,5.7-1.3,11.4-2,16.9c-0.7,5.6-1.5,11-1.8,16.3c-0.4,5.3-0.6,10.4-0.5,15.3
			c0.1,4.9,0.3,9.4,0.7,13.7c0.1,1.1,0.2,2.1,0.3,3.1c0.2,1,0.3,2,0.3,2.9c0.1,1.9,0.3,3.8,0.5,5.5c0.4,3.4,0.8,6.4,1.2,8.9
			c0.2,1.2,0.4,2.3,0.5,3.3c0.2,1,0.3,1.8,0.4,2.4c0.2,1.3,0.4,2,0.4,2s-0.2-0.7-0.7-1.9c-0.4-1.3-1.1-3.1-1.8-5.5
			c-0.7-2.4-1.5-5.3-2.3-8.8c-0.4-1.7-0.8-3.5-1.2-5.5c-0.4-1.9-0.5-4-0.7-6.1c-0.4-4.3-0.7-9-0.7-13.9c-0.1-4.9,0.1-10.2,0.5-15.5
			c0.4-5.4,1.1-10.9,1.9-16.5c0.7-5.6,1.5-11.2,2-16.8c0.5-5.6,0.9-11.3,0.9-16.8c0-1.4,0-2.8-0.1-4.1c0-1.3-0.2-2.8-0.3-4.1
			c-0.3-2.7-0.6-5.4-1.1-7.9c-0.9-5.2-2.3-10.1-4.4-14.2c-2.1-4.2-5-7.6-8.5-9.6c-1.7-1.1-3.5-1.6-5.3-2.3c-1.7-0.6-3.5-1.1-5.1-1.4
			c-3.3-0.6-6.4-0.8-8.8-0.9C-85.6-387.8-88.5-387.9-88.5-387.9z"/>
	</g>
	<g display="inline">
		<path d="M319.1-345.7c0,0-0.3,0.1-0.9,0.3c-0.6,0.2-1.5,0.5-2.7,0.8c-0.6,0.1-1.4,0.1-2.1,0.2c-0.7,0-1.4,0.1-2.2,0.2
			c-0.4,0.1-0.8,0.1-1.2,0.2c-0.4,0.1-0.8,0.2-1.2,0.2c-0.4,0.1-0.9,0.1-1.3,0.2c-0.4,0.1-0.9,0.1-1.3,0.2c-1.8,0.4-3.7,1.1-5.5,2.2
			c-0.9,0.6-1.7,1.2-2.6,2c-0.8,0.8-1.5,1.6-2.3,2.6c-1.6,2-3.1,4-4.7,6.1c-1.6,2.1-3.1,4.2-4.6,6.4c-0.8,1.1-1.5,2.2-2.2,3.3
			c-0.7,1.1-1.4,2.2-2,3.4c-1.3,2.2-2.5,4.5-3.5,6.7c-1,2.2-1.9,4.4-2.6,6.6c-0.4,1.1-0.6,2.1-0.9,3.1c-0.3,1-0.5,2-0.7,3
			c-0.1,0.5-0.2,0.9-0.3,1.4c-0.1,0.5-0.1,0.9-0.2,1.3c-0.2,0.9-0.5,1.7-0.7,2.5c-0.3,1.6-0.6,3-0.8,4.1c-0.3,2.3-0.5,3.7-0.5,3.7
			s-0.2-1.3-0.6-3.7c-0.1-1.2-0.2-2.6-0.3-4.3c0-0.8,0-1.7,0-2.7c0-1,0.3-1.9,0.5-2.9c0.2-1,0.4-2.1,0.7-3.1c0.3-1.1,0.5-2.2,1-3.3
			c0.7-2.2,1.6-4.6,2.7-6.9c1.1-2.3,2.3-4.7,3.6-7c0.7-1.2,1.3-2.3,2.1-3.5c0.7-1.2,1.5-2.3,2.2-3.4c1.5-2.2,3.1-4.4,4.7-6.5
			c1.6-2.1,3.2-4.2,4.8-6.1c0.8-1,1.7-2,2.6-2.9c1-0.9,2-1.7,3-2.3c2.1-1.3,4.4-2.2,6.4-2.6c1.1-0.2,2.1-0.5,3-0.4
			c0.5,0,1,0.1,1.4,0.1c0.5,0.1,0.9,0.1,1.3,0.2c0.9,0.1,1.7,0.3,2.3,0.5c0.7,0.2,1.3,0.3,1.8,0.4c1.1,0.1,2.1,0.1,2.7,0.1
			C318.8-345.7,319.1-345.7,319.1-345.7z"/>
	</g>
	<g display="inline">
		<path fill="none" d="M84.4-357.3"/>
	</g>
	<g display="inline">
		<path d="M312.2-197.1c0,0-0.6,0.7-1.7,1.8c-0.6,0.5-1.2,1.2-2,2c-0.4,0.4-0.8,0.8-1.2,1.2c-0.2,0.2-0.5,0.4-0.7,0.5
			c-0.3,0.2-0.5,0.3-0.8,0.5c-4.4,2.9-10.1,6.8-16.2,10.3c-1.5,0.9-3.1,1.7-4.6,2.5c-0.8,0.4-1.6,0.8-2.3,1.2
			c-0.8,0.4-1.6,0.7-2.3,1c-0.8,0.4-1.5,0.6-2.3,0.9c-0.8,0.3-1.5,0.6-2.2,0.8c-1.5,0.4-2.8,1-4.2,1.2c-0.3,0.1-0.7,0.1-1,0.2
			c-0.3,0.1-0.6,0.2-0.9,0.2c-0.6,0-1.2,0-1.8,0c-1.1,0-2.1-0.1-2.9-0.2c-1.6-0.2-2.4-0.4-2.4-0.4s0.9-0.3,2.3-0.7
			c0.7-0.2,1.6-0.5,2.6-0.9c0.5-0.2,1-0.4,1.6-0.6c0.3-0.1,0.6-0.2,0.9-0.2c0.3-0.1,0.6-0.1,0.9-0.2c1.2-0.2,2.5-0.7,3.9-1.1
			c0.7-0.2,1.4-0.5,2.1-0.8c0.7-0.3,1.4-0.5,2.2-0.9c0.7-0.3,1.5-0.7,2.2-1c0.7-0.4,1.5-0.7,2.2-1.1c1.5-0.7,3-1.6,4.5-2.4
			c6-3.4,11.7-7.4,16.1-10.2c0.3-0.2,0.5-0.4,0.8-0.5c0.2-0.2,0.5-0.4,0.8-0.5c0.6-0.2,1.1-0.4,1.6-0.6c1-0.4,1.9-0.7,2.6-1
			C311.3-196.9,312.2-197.1,312.2-197.1z"/>
	</g>
	<g display="inline">
		<path d="M134.2-319.1c-0.6-1.3-1.2-2.7-1.8-4c-0.6-1.3-1.3-2.6-1.9-3.9c-0.7-1.3-1.3-2.6-2-3.8c-0.7-1.3-1.4-2.5-2.2-3.7
			c-0.8-1.2-1.5-2.4-2.4-3.6c-0.8-1.2-1.7-2.3-2.6-3.4c-0.8-1.2-1.7-2.3-2.6-3.4c-0.9-1-1.9-2.2-2.9-3.1c-0.5-0.5-1-1-1.5-1.4
			c-0.5-0.4-1-0.9-1.6-1.3c-0.6-0.4-1.1-0.8-1.7-1.2l-1.8-1.1l-1.8-0.9l-1.9-0.8c-0.6-0.2-1.3-0.4-2-0.7c-0.7-0.2-1.3-0.3-2-0.5
			c-1.4-0.3-2.7-0.5-4.1-0.6c-0.7-0.1-1.4-0.1-2.1-0.1c-0.7,0-1.4,0-2.1,0c-0.7,0-1.4,0-2.1,0.1c-0.7,0.1-1.4,0.1-2.1,0.2
			c-1.4,0.2-2.8,0.4-4.2,0.7c-0.1,0-0.2,0-0.2,0l0,0c-1.2,0-2.5,0.2-3.8,0.6c-1.3,0.3-2.5,0.8-3.6,1.3c-2.2,1.2-4,2.9-4.9,5.2
			c-0.2,0.6-0.4,1.1-0.6,1.7l-0.3,1.8l0,1.9c0,0.6,0.1,1.4,0.1,2c0.2,2.8,0.3,5.5,0.6,8.3c0.8,11,2,22.1,3,33.2l1.3,16.6l0.6,8.3
			l0.3,4.2c0.1,1.5,0.1,2.8,0.2,4.2c0.1,1.4,0.1,2.7,0.3,4.1c0.1,1.4,0.3,2.7,0.4,4.1c0.2,2.7,0.5,5.4,1.1,8.1
			c0.6,2.6,1.4,5.2,2.7,7.7c1.2,2.4,2.8,4.7,4.8,6.7c-2.2-1.7-4.2-3.8-5.7-6.2c-1.5-2.4-2.7-5-3.7-7.7c-0.9-2.7-1.6-5.5-2.1-8.2
			c-0.3-1.4-0.4-2.8-0.5-4.2c-0.1-1.4-0.2-2.8-0.3-4.2c-0.1-1.4-0.1-2.8-0.2-4.1l-0.3-4.2l-0.6-8.3l-1.3-16.6
			c-0.9-11-2.1-22.1-3-33.2c-0.2-2.8-0.4-5.6-0.6-8.3c0-0.7-0.1-1.3-0.1-2.1l0-2.3l0.4-2.3c0.2-0.7,0.5-1.5,0.7-2.2
			c1.2-2.9,3.6-5.3,6.3-6.7c1.4-0.7,2.8-1.2,4.2-1.6c1.5-0.4,2.9-0.6,4.5-0.6l-0.3,0c1.5-0.3,2.9-0.5,4.4-0.7
			c0.7-0.1,1.5-0.2,2.2-0.2c0.7-0.1,1.5-0.1,2.3-0.1c0.8,0,1.5,0,2.3,0c0.8,0,1.5,0,2.3,0.1c1.5,0.1,3,0.3,4.5,0.7
			c0.7,0.2,1.5,0.3,2.2,0.6c0.7,0.2,1.5,0.5,2.2,0.7l2.1,0.9l2,1l2,1.2c0.6,0.4,1.2,0.9,1.9,1.3c0.6,0.4,1.2,1,1.8,1.4
			c0.6,0.5,1.1,1,1.7,1.6c1.2,1.1,2,2.1,3,3.3c0.9,1.2,1.9,2.3,2.7,3.5c0.8,1.2,1.6,2.5,2.3,3.8c0.7,1.3,1.4,2.6,2,4
			c0.6,1.3,1.2,2.7,1.8,4c0.6,1.4,1.1,2.7,1.6,4.1C132.5-324.7,133.4-321.9,134.2-319.1z"/>
	</g>
	<g display="inline">
		<path d="M-133.1,244.4l-1.6-5.9c-0.3-1-0.5-2-0.8-2.9l-0.6-3c-0.4-2-0.9-4-1.2-6l-0.9-6c-0.2-1-0.3-2-0.3-3l-0.3-3l-0.3-3l-0.1-3
			c-0.3-4.1-0.2-8.1-0.2-12.2l0.2-6.1l0.5-6.1c0.2-2,0.4-4.1,0.7-6.1c0.3-2,0.6-4,0.9-6.1c0.7-4,1.6-8,2.7-12c0.3-1,0.6-2,0.9-3
			c0.3-1,0.6-1.9,0.8-2.9c0.5-1.9,1.1-4,1.9-6c0.4-1,0.9-1.9,1.3-2.8l1.3-2.7c0.9-1.8,1.9-3.6,2.8-5.4c1.9-3.6,3.8-7.2,5.9-10.7
			c2-3.5,4.1-7,6.2-10.5c2.1-3.5,4.3-6.9,6.5-10.3c2.2-3.4,4.5-6.8,6.7-10.2c2.3-3.4,4.6-6.7,6.9-10c4.7-6.6,9.4-13.2,14.2-19.8
			l-0.1,0.2l2.1-3.9c0-0.1,0.1-0.1,0.1-0.2l14.1-18.9l0.2-0.3l0.1-0.1c0,0,0,0.1,0,0l0.1-0.1l0.4-0.6l0.4-0.6l0.2-0.3l0.1-0.2
			l0.1-0.1l0.1-0.2l1.8-2.3l3.6-4.7l7.2-9.3l29-37.2l29-37.2l7.2-9.3c2.4-3.1,4.7-6.3,7-9.4c2.3-3.2,4.7-6.3,7.2-9.4
			c1.2-1.5,2.6-3.1,3.9-4.5l3.9-4.4c5.3-5.9,10.6-11.7,16-17.4c5.4-5.7,10.8-11.4,16.4-17l33.3-33.4l16.7-16.7
			c2.8-2.8,5.6-5.6,8.4-8.3l8.5-8.1c5.7-5.4,11.2-11,16.6-16.7c5.3-5.8,10.4-11.8,15.1-18.1l0,0.1c1.1-2.5,2.1-5,3-7.5
			c0.9-2.5,1.7-5.1,2.4-7.7c-0.5,2.7-1.2,5.3-2,7.9c-0.8,2.6-1.7,5.2-2.7,7.7c0,0,0,0,0,0.1l0,0c-4.4,6.5-9.3,12.7-14.4,18.7
			c-5.1,6-10.5,11.8-16,17.4c-2.7,2.8-5.5,5.7-8.2,8.5c-2.8,2.8-5.6,5.5-8.4,8.3l-16.6,16.7l-33.3,33.4c-5.5,5.6-10.9,11.3-16.3,17
			C51.6-97.1,46.3-91.3,41-85.5l-3.9,4.4c-1.3,1.5-2.6,2.9-3.8,4.4c-2.5,3-4.8,6.2-7.1,9.3c-2.3,3.2-4.6,6.3-7.1,9.5l-7.2,9.3
			l-29,37.2l-29,37.2l-7.2,9.3l-3.6,4.7l-1.8,2.3l-0.8,1.1l-0.4,0.6l-0.1,0.2l-0.1,0.1l-0.2,0.3l-14.1,18.9l0.1-0.2l-2.1,3.9
			c0,0.1-0.1,0.1-0.1,0.2c-4.8,6.5-9.5,13.1-14.1,19.7c-2.3,3.3-4.6,6.6-6.9,10c-2.3,3.3-4.5,6.7-6.7,10.1
			c-2.2,3.4-4.3,6.8-6.4,10.3c-2.1,3.4-4.2,6.9-6.2,10.4c-2,3.5-3.9,7-5.8,10.6c-0.9,1.8-1.9,3.6-2.8,5.4l-1.3,2.7
			c-0.4,0.9-0.9,1.8-1.3,2.7c-0.7,1.7-1.3,3.6-1.8,5.6c-0.3,1-0.6,2-0.9,3c-0.3,1-0.6,1.9-0.8,2.9c-1,3.9-1.9,7.8-2.7,11.7
			c-0.4,2-0.7,3.9-1.1,5.9c-0.3,2-0.6,4-0.9,6l-0.7,6l-0.5,6c-0.2,4-0.4,8-0.3,12.1l0,3l0.2,3l0.2,3c0,1,0.1,2,0.2,3l0.6,6
			c0.2,2,0.6,4,0.9,6l0.5,3c0.2,1,0.4,2,0.6,3L-133.1,244.4z"/>
	</g>
	<g display="inline">
		<path d="M129.2-175.3l4.8,4.6l2.4,2.3l0.6,0.6c0.2,0.2,0.4,0.4,0.6,0.6l1.1,1.2l0,0c5.1,4.4,10.4,8.7,15.5,13.3
			c1.3,1.2,2.5,2.3,3.7,3.5l3.6,3.7l7,7.4l7,7.5c2.3,2.5,4.5,5.1,6.7,7.6l13.4,15.4c4.4,5.2,8.9,10.2,13.4,15.3
			c4.5,5.1,9,10.2,13.5,15.3c4.4,5.2,8.8,10.4,12.9,15.9c2.1,2.7,4.1,5.5,6,8.3l2.9,4.2l2.8,4.3c0,0,0.1,0.1,0.1,0.1l0,0.1l3.9,8.4
			l1,2.1l1.1,2l2.1,4.1c0.7,1.4,1.4,2.7,2.1,4.1l2.3,4l2.3,4c0.7,1.3,1.6,2.6,2.4,3.9c1.6,2.6,3.2,5.3,4.9,7.8l2.5,3.8l1.3,1.9
			l1.3,1.9c1.8,2.5,3.5,5,5.4,7.5c1.9,2.4,3.7,4.9,5.6,7.3l2.9,3.6l3,3.5c1,1.2,2,2.3,3,3.5l3.1,3.4l3.1,3.4l3.2,3.3
			c2.2,2.2,4.4,4.3,6.6,6.3l27.8,24.6c0,0,0.1,0.1,0.1,0.1l1.5,1.7l-0.1-0.1c13,11.2,25.7,22.7,38.8,33.5c3.3,2.7,6.6,5.4,10,8
			c3.4,2.6,6.8,5.2,10.2,7.7l20.7,15.2l0,0c0.1,0.1,0.3,0.2,0.4,0.4c1,1.6,1.9,3.2,2.8,4.8c0.9,1.6,1.7,3.3,2.6,4.9
			c0.8,1.6,1.6,3.3,2.4,5c0.8,1.7,1.5,3.4,2.2,5c0.7,1.7,1.3,3.4,2,5.2c0.7,1.7,1.2,3.5,1.8,5.2c0.6,1.7,1.1,3.5,1.6,5.3
			c0.5,1.8,1.1,3.5,1.5,5.3c0.4,1.8,0.9,3.6,1.3,5.4l1.1,5.4c0.4,1.8,0.6,3.6,0.9,5.4c0.2,1.8,0.6,3.6,0.7,5.5l0.4,5.5
			c0.1,1.8,0,3.7,0.1,5.5l0,2.7c0,0.9-0.1,1.8-0.2,2.7l-0.4,5.5l0.1-5.5c0-0.9,0-1.8,0-2.7l-0.2-2.7c-0.1-1.8-0.2-3.6-0.4-5.4
			l-0.7-5.4c-0.2-1.8-0.6-3.6-0.9-5.4c-0.4-1.8-0.6-3.6-1.1-5.3l-1.3-5.3c-0.5-1.8-1-3.5-1.5-5.2c-0.5-1.7-1.1-3.5-1.7-5.2
			c-0.6-1.7-1.2-3.4-1.8-5.1c-0.7-1.7-1.3-3.4-2-5.1l-2.2-5c-0.8-1.6-1.5-3.3-2.2-5c-0.8-1.6-1.5-3.3-2.3-4.9
			c-0.8-1.6-1.6-3.2-2.5-4.8c-0.9-1.6-1.8-3.2-2.7-4.7l0.4,0.4l-20.7-15.2c-3.4-2.5-6.9-5.1-10.3-7.7c-3.4-2.6-6.8-5.3-10.1-8
			c-13.2-10.9-26-22.4-38.9-33.6c0,0-0.1-0.1-0.1-0.1l-1.5-1.7l0.1,0.1L308,48.1c-2.4-2.1-4.6-4.3-6.8-6.5l-3.3-3.3l-3.2-3.4
			l-3.1-3.5c-1-1.2-2.1-2.3-3.1-3.5l-3-3.6l-2.9-3.6c-2-2.4-3.8-4.9-5.7-7.4c-1.9-2.5-3.6-5-5.4-7.6l-1.3-1.9L268.9,2l-2.6-3.9
			c-1.8-2.6-3.3-5.3-5-7.9c-0.8-1.3-1.7-2.6-2.4-4l-2.3-4.1l-2.3-4.1c-0.7-1.4-1.4-2.8-2.1-4.1l-2.1-4.1l-1.1-2.1l-1-2.1l-3.9-8.5
			l0.1,0.2l-2.7-4.3l-2.8-4.2c-1.9-2.8-3.9-5.5-6-8.2c-4.1-5.4-8.4-10.6-12.8-15.7c-4.4-5.1-8.9-10.2-13.4-15.3
			c-4.5-5.1-9-10.2-13.4-15.4c-4.4-5.1-8.9-10.3-13.3-15.4c-2.2-2.5-4.5-5.1-6.7-7.6l-6.6-7.7l-6.7-7.7l-3.4-3.8
			c-1.1-1.2-2.3-2.5-3.5-3.6c-4.8-4.8-9.9-9.2-14.8-14l0,0l0,0l-1.1-1.3c-0.2-0.2-0.4-0.4-0.5-0.6l-0.6-0.6l-2.3-2.4L129.2-175.3z"
			/>
	</g>
	<g display="inline">
		<path d="M521.3-105.4c0,0-0.1,1.6-0.4,4.4c-0.1,1.4-0.3,3.1-0.6,5c-0.1,1-0.3,2-0.4,3.1c-0.1,1.1-0.6,2.2-0.8,3.3
			c-2.3,9.3-5.4,21.7-9,34c-0.9,3.1-1.8,6.1-2.8,9.2c-0.9,3-1.9,6-2.9,8.8c-1.9,5.7-3.9,11-5.8,15.4c-0.2,0.6-0.5,1.1-0.7,1.6
			c-0.2,0.5-0.4,1.1-0.7,1.5c-0.5,1-1.1,1.9-1.6,2.7c-0.5,0.8-1,1.6-1.5,2.3c-0.5,0.7-0.9,1.4-1.4,1.9c-0.4,0.6-0.8,1.1-1.1,1.5
			c-0.4,0.4-0.7,0.8-0.9,1.1c-0.5,0.6-0.8,0.9-0.8,0.9s0.2-0.4,0.5-1c0.2-0.3,0.4-0.8,0.6-1.2c0.2-0.5,0.5-1.1,0.7-1.7
			c0.3-0.6,0.6-1.4,0.9-2.1c0.3-0.8,0.6-1.6,0.9-2.5c0.3-0.9,0.7-1.9,1-2.9c0.2-0.5,0.4-1,0.6-1.5c0.3-0.5,0.5-1,0.7-1.6
			c1.8-4.4,3.8-9.6,5.7-15.2c1-2.8,1.9-5.8,2.8-8.7c0.9-3,1.9-6,2.8-9.1c3.6-12.2,6.7-24.6,9-33.9c0.3-1.2,0.4-2.3,0.8-3.3
			c0.4-1,0.7-2,1-2.9c0.7-1.8,1.2-3.5,1.7-4.8C520.7-103.8,521.3-105.4,521.3-105.4z"/>
	</g>
	<g display="inline">
		<path d="M407.3,112.9c0,0,0.7,0.7,1.8,1.8c0.6,0.6,1.3,1.2,2.1,2c0.4,0.4,0.9,0.8,1.3,1.2c0.5,0.4,0.8,1,1.2,1.5
			c1.7,2.1,3.9,4.4,6.4,6.6c1.3,1.1,2.6,2.2,4.1,3.2c1.5,1,3,2,4.5,2.8c1.6,0.9,3.2,1.6,4.8,2.2c0.8,0.3,1.7,0.5,2.5,0.8
			c0.8,0.2,1.6,0.4,2.5,0.6c0.8,0.1,1.6,0.3,2.4,0.4c0.8,0.1,1.6,0.2,2.3,0.2c0.8,0,1.5,0.1,2.2,0.1c0.7,0,1.4,0,2.1-0.1
			c0.7,0,1.3-0.2,1.9-0.1c0.6,0,1.2,0.1,1.8,0.1c1.1,0,2.1,0.1,2.9,0c1.6-0.1,2.6-0.1,2.6-0.1s-0.8,0.4-2.3,1.2
			c-0.8,0.4-1.7,0.7-2.8,1.1c-0.6,0.2-1.2,0.4-1.8,0.6c-0.3,0.1-0.7,0.1-1,0.1c-0.3,0-0.7,0.1-1.1,0.1c-0.7,0-1.5,0-2.3,0.1
			c-0.8,0-1.6-0.1-2.4-0.1c-0.8-0.1-1.7-0.2-2.5-0.3c-0.9-0.1-1.7-0.3-2.6-0.5c-0.9-0.2-1.8-0.4-2.7-0.7c-0.9-0.3-1.8-0.6-2.7-0.9
			c-1.8-0.7-3.5-1.4-5.2-2.3c-1.7-0.9-3.3-1.9-4.9-3c-1.5-1.1-3-2.2-4.3-3.4c-2.7-2.3-5-4.8-6.8-7c-0.2-0.3-0.4-0.5-0.7-0.8
			c-0.2-0.2-0.5-0.5-0.6-0.8c-0.3-0.6-0.6-1.1-0.8-1.7c-0.5-1-0.9-2-1.2-2.8C407.6,113.8,407.3,112.9,407.3,112.9z"/>
	</g>
	<g display="inline">
		<path d="M631.5,15.1c0,0,0.5,1.1,1.3,3.1c0.4,1,0.9,2.2,1.4,3.6c0.3,0.7,0.5,1.4,0.8,2.2c0.3,0.8,0.3,1.7,0.5,2.5
			c0.7,3.5,1.5,7.6,2.3,12.1c0.4,2.2,0.8,4.5,1.2,6.8c0.4,2.3,0.8,4.7,1.1,7.1c0.3,2.4,0.7,4.8,0.9,7.1c0.1,1.2,0.3,2.3,0.4,3.5
			c0.1,1.2,0.2,2.3,0.3,3.4c0.1,1.1,0.2,2.2,0.3,3.3c0.1,1.1,0.1,2.1,0.2,3.2c0.1,1,0.1,2,0.2,3c0,1,0,1.9,0,2.8c0,0.5,0,0.9,0,1.3
			c0,0.4,0.1,0.9,0,1.3c-0.2,0.8-0.3,1.6-0.4,2.3c-0.3,1.5-0.5,2.7-0.8,3.8c-0.6,2.1-1,3.2-1,3.2s-0.1-1.2-0.1-3.3
			c0-1-0.2-2.3-0.3-3.8c-0.1-0.7-0.2-1.5-0.2-2.3c-0.1-0.4-0.1-0.8,0-1.2c0-0.4,0-0.9,0-1.3c0-0.9,0-1.8,0-2.8c0-1-0.1-1.9-0.2-3
			c-0.1-1-0.1-2.1-0.2-3.1c-0.1-1.1-0.2-2.2-0.3-3.3c-0.1-1.1-0.2-2.2-0.3-3.4c-0.1-1.1-0.3-2.3-0.4-3.5c-0.3-2.3-0.6-4.7-0.9-7
			c-0.3-2.4-0.7-4.7-1.1-7c-0.4-2.3-0.8-4.6-1.2-6.8c-0.8-4.4-1.6-8.5-2.3-12c-0.1-0.9-0.5-1.7-0.5-2.5c-0.1-0.8-0.1-1.6-0.2-2.3
			c-0.1-1.5-0.2-2.7-0.2-3.8C631.5,16.3,631.5,15.1,631.5,15.1z"/>
	</g>
	<g display="inline">
		<path d="M-44.9-330.1c0,0,0.7-0.4,2.2-1c1.4-0.6,3.6-1.5,6.4-2.4c2.8-0.9,6.3-1.8,10.5-2.2c2.1-0.2,4.3-0.4,6.7-0.3
			c2.4,0,4.9,0.5,7.4,1.4c2.5,0.8,5,2.1,7.3,3.8c2.3,1.7,4.3,4,6,6.5c3.3,5.2,4.8,11.4,5.4,17.8c0.3,3.2,0.3,6.5,0.3,9.7
			c0,3.2-0.2,6.6-0.3,9.9c-0.4,6.6-1,13.3-1.9,20c-1.7,13.3-4.3,26.5-6.2,38.8c-0.9,6.2-1.7,12.2-2.2,17.9
			c-0.5,5.7-0.8,11.1-0.8,16.1c0,1.2,0,2.5,0,3.7c0,1.2,0.1,2.4,0.1,3.5c-0.1,2.3-0.1,4.4-0.1,6.5c0,4.1,0.2,7.6,0.4,10.5
			c0.1,1.5,0.2,2.8,0.2,3.9c0.1,1.1,0.2,2.1,0.2,2.9c0.1,1.6,0.2,2.4,0.2,2.4s-0.2-0.8-0.5-2.4c-0.2-0.8-0.4-1.7-0.6-2.8
			c-0.2-1.1-0.4-2.4-0.7-3.9c-0.5-2.9-1-6.4-1.5-10.5c-0.2-2-0.5-4.2-0.6-6.5c-0.1-2.3,0-4.7-0.1-7.3c0.1-5.1,0.3-10.5,0.8-16.3
			c0.5-5.8,1.3-11.8,2.2-18c1.9-12.4,4.4-25.6,6.2-38.8c0.9-6.6,1.5-13.2,1.9-19.8c0.2-3.3,0.3-6.5,0.3-9.7c0-3.3,0-6.3-0.3-9.4
			c-0.5-6.1-2-11.9-5-16.5c-1.5-2.3-3.2-4.2-5.3-5.8c-2-1.5-4.2-2.6-6.5-3.4c-4.5-1.3-9-1.9-13-1.8c-4,0.1-7.5,0.6-10.3,1.1
			c-2.9,0.6-5.1,1.1-6.6,1.6C-44.1-330.4-44.9-330.1-44.9-330.1z"/>
	</g>
	<g display="inline">
		<path fill="none" d="M191.4-350.3"/>
	</g>
</g>
<g id="Layer_1">
</g>
<g id="Layer_3">
</g>
<g id="Layer_2">
	<path fill="#FFFFFF" d="M374.2,189.9c-2.9-2.7-6.3-3.9-9.9-3.6c-7.9,0.6-14.2,8.3-14.5,8.7c0,0-0.1,0.1-0.1,0.2
		c-0.1,0.2-12,18-27.4,18.6c-8.2,0.3-16-4.3-23.3-13.7c-1-1.3-2.1-2.6-3.1-3.8c2-29.9-14.3-71.7-15.6-75.2c-0.6-2.9-1.7-4.3-3.3-4.3
		c0,0,0,0,0,0c-2.4,0-3,3.1-3.3,4.9c-1.6,8.1-31,93.3-52,93.7c-2.2,0.1-4-0.8-5.6-2.6c-6.8-8-6.3-30.3-4.7-48
		c1.4-8,2.4-16.1,3.1-23.9c0.1-1.1-0.7-2-1.7-2.2c-1.1-0.2-2,0.6-2.2,1.6c0,0.1-1.9,10.8-3.1,24c-5.2,29.6-14.1,46.5-25.8,48.3
		c-1.9,0.3-3.4-0.2-4.7-1.6c-7.3-7.4-5.9-35.9-3.6-56.1c1.3-8.4,2-14.5,2.1-15.2c0.1-1.1-0.6-2-1.7-2.2c-1.1-0.1-2.1,0.6-2.2,1.7
		c-0.3,1.8-1.3,7.7-2.2,15.5c-3.2,19.6-10,51.9-21.3,59.7c-2.1,1.5-4.3,1.9-6.5,1.3c-2.8-0.7-4.9-2.5-6.4-5.3
		c-3.6-6.9-3.4-19.9,0.5-37.7c3-13.7,7.2-25.4,7.3-25.5c0.2-0.7,0.1-1.4-0.3-1.9c-0.4-0.5-1.1-0.8-1.8-0.7
		c-2.8,0.4-13.5-4.9-20.1-8.7c-0.6-0.3-1.3-0.4-1.8-0.1c-0.6,0.3-1,0.8-1.1,1.5l-6.9,37.3c-4.6,25-20.7,42.4-28.8,41.5
		c-3.6-0.4-5.5-5.3-5.2-13.4c0.8-19.6,7.3-89.5,12.2-141.3c14-1.7,26.6-2.4,31.4-0.7c1,0.4,2.2-0.1,2.6-1.2c0.4-1-0.1-2.2-1.2-2.6
		c-5.4-2-18.4-1.3-32.4,0.3c1.1-11.7,2.1-22.3,3-31c1.1-9,1.9-17,2.3-24c0.1-1.1-0.7-2-1.8-2.1c-1.1-0.1-2,0.7-2.2,1.8
		c0,0.4-0.9,9.6-2.3,23.9c-1.2,9.5-2.7,20.1-4.7,32.1c-19.2,2.5-38.3,6.2-39.8,6.5c-1.1,0.2-1.8,1.3-1.6,2.3c0.2,1,1,1.6,2,1.6
		c0.1,0,0.3,0,0.4,0c8.4-1.6,23.6-4.3,38.3-6.3c-4.6,27.9-11.3,62.6-20.4,106.2c-6.4,30.5-17.1,49.3-31.9,55.7
		C16.4,230,3.3,222.3,3,222.1c-0.9-0.6-2.2-0.3-2.7,0.7c-0.6,0.9-0.3,2.2,0.7,2.8c0.4,0.3,7.9,4.7,18,4.7c4.1,0,8.5-0.7,13.1-2.7
		c16.1-7,27.7-26.7,34.3-58.6c6.4-30.5,11.6-56.8,15.7-79.4c-4.3,46.2-8.9,96.6-9.5,112.8c-0.6,14.4,5.2,17.2,8.7,17.6
		c11.1,1.3,28.4-18.4,33.2-44.8l6.4-34.5c4.2,2.4,12.1,6.5,17.2,7.6c-3.4,10-15.2,47.8-6.7,64c2,3.8,5,6.3,8.9,7.3
		c3.4,0.9,6.7,0.3,9.8-1.9c7.6-5.2,13.2-19.4,17.2-34.3c0,13.1,1.6,25.3,6.7,30.5c2.2,2.2,5,3.2,8.1,2.7
		c11.5-1.7,19.2-14.2,24.2-30.5c0.2,14.5,2.4,24.3,6.7,29.3c2.3,2.7,5.2,4.1,8.7,4c8.2-0.2,16.8-9.8,24.8-23
		c-0.6,2.7-0.8,5.7-0.8,8.8c0.3,14.1,10.4,21.5,20.4,22.5c11.2,1.2,24.4-5.2,28.5-22.3c0.3-1.2,0.5-2.4,0.7-3.7
		c0.2,0.2,0.4,0.5,0.6,0.7c8.1,10.5,17.1,15.6,26.6,15.2c17-0.7,29.4-18.7,30.5-20.3c0.6-0.7,5.8-6.7,11.6-7.1
		c2.5-0.2,4.7,0.7,6.9,2.6c0.8,0.7,2.1,0.7,2.8-0.1C375.1,191.9,375,190.6,374.2,189.9z M290.7,204.5c-3.5,14.8-14.7,20.3-24.2,19.3
		c-8.2-0.9-16.6-7-16.8-18.6c-0.2-11.2,4.2-19.8,11.5-22.4c1.6-0.6,3.2-0.8,4.9-0.8c7.6,0,16.6,5.4,25.6,15.6
		C291.6,199.9,291.3,202.3,290.7,204.5z M266.1,177.9c-2.1,0-4.2,0.3-6.2,1c-2.1,0.7-4,1.9-5.7,3.3c11.7-23.6,20.9-51,22.9-58.3
		c3,7.9,15.3,42,14.9,68C283.2,182.8,274.2,177.9,266.1,177.9z"/>
	<path fill="#FFFFFF" d="M177,113.8c-3.8,0-6.8-2.7-6.8-5.9s3.1-5.9,6.8-5.9s6.8,2.7,6.8,5.9S180.8,113.8,177,113.8z M177,105.9
		c-1.5,0-2.8,0.9-2.8,1.9s1.3,1.9,2.8,1.9s2.8-0.9,2.8-1.9S178.6,105.9,177,105.9z"/>
	<path fill="#FFFFFF" d="M211.5,115.8c-3.9,0-7.1-3.1-7.1-7s3.2-7,7.1-7s7.1,3.1,7.1,7S215.4,115.8,211.5,115.8z M211.5,105.9
		c-1.7,0-3.1,1.3-3.1,3s1.4,3,3.1,3c1.7,0,3.1-1.3,3.1-3S213.1,105.9,211.5,105.9z"/>
</g>
</svg>
